<?xml version="1.0" encoding="UTF-8" standalone="no"?>
<svg
   xmlns:dc="http://purl.org/dc/elements/1.1/"
   xmlns:cc="http://creativecommons.org/ns#"
   xmlns:rdf="http://www.w3.org/1999/02/22-rdf-syntax-ns#"
   xmlns:svg="http://www.w3.org/2000/svg"
   xmlns="http://www.w3.org/2000/svg"
   viewBox="0 0 296.0473 263.38681"
   id="svg31"
   height="263.38681"
   width="296.0473"
   version="1.1">
  <metadata
     id="metadata37">
    <rdf:RDF>
      <cc:Work
         rdf:about="">
        <dc:format>image/svg+xml</dc:format>
        <dc:type
           rdf:resource="http://purl.org/dc/dcmitype/StillImage" />
      </cc:Work>
    </rdf:RDF>
  </metadata>
  <defs
     id="defs35" />
  <g
     id="Layer1000">
    <path
       id="path2"
       style="fill:#38cbc8;fill-rule:evenodd"
       d="M -1e-4,0 H 296.0474 V 263.3868 H -1e-4 Z" />
    <g
       id="Layer1001">
      <g
         id="Layer1002">
        <path
           id="path4"
           style="fill:#ffffff;fill-rule:evenodd"
           d="m 126.0237,115.9279 c -3.7259,-0.2861 -7.8384,-4.4834 -5.1728,-8.2715 2.3485,-3.3372 6.6416,-0.4471 7.4401,2.5163 0.3825,1.4182 0.319,3.0572 -0.183,4.4456 -0.3855,1.0668 1.3145,1.5268 1.697,0.4678 0.9565,-2.6431 0.5295,-5.8791 -1.1498,-8.1257 -1.9203,-2.568 -6.0566,-3.4299 -8.546,-1.115 -2.1435,1.9934 -2.1032,5.6888 -0.7405,8.1129 1.2895,2.2935 4.1162,3.5349 6.655,3.7294 1.1291,0.0867 1.1236,-1.6738 0,-1.7598 z" />
        <path
           id="path6"
           style="fill:#ffffff;fill-rule:evenodd"
           d="m 137.1566,117.7988 c -2.4564,-2.2106 -5.7528,-4.6134 -9.148,-2.8719 -2.8072,1.4396 -3.5801,4.478 -3.0896,7.3937 1.6683,9.9288 15.3065,11.6466 23.2998,12.5762 1.123,0.1305 1.1138,-1.6305 0,-1.7598 -6.3543,-0.7393 -12.6415,-1.6391 -17.916,-5.5503 -2.6041,-1.9306 -5.1362,-5.9785 -3.2745,-9.3219 2.1704,-3.8985 6.4244,-1.4347 8.8839,0.779 0.84,0.7557 2.0886,-0.485 1.2444,-1.245 z" />
        <path
           id="path8"
           style="fill:#ffffff;fill-rule:evenodd"
           d="m 142.5703,134.2655 c 3.0987,6.2957 6.7202,12.4688 11.566,17.5933 2.2753,2.4064 7.4943,8.244 11.4721,6.6727 5.751,-2.2716 -5.1916,-11.1476 -6.9893,-12.6213 -0.8692,-0.7125 -2.1215,0.5252 -1.2444,1.2444 1.2835,1.0522 2.526,2.1642 3.7143,3.3232 1.0388,1.0132 2.0837,2.0557 2.9523,3.2207 0.2251,0.302 1.1322,1.256 1.1096,1.7025 -0.0677,1.3005 -2.7163,0.8205 -3.8619,0.3227 -3.8203,-1.6598 -7.3943,-6.5507 -9.7866,-9.7897 -2.8902,-3.9143 -5.2673,-8.1989 -7.4126,-12.5567 -0.5002,-1.0162 -2.0185,-0.1256 -1.5195,0.8882 z" />
        <path
           id="path10"
           style="fill:#ffffff;fill-rule:evenodd"
           d="M 120.779,105.43 C 112.5959,97.2274 104.1714,88.4808 99.2609,77.8389 95.3143,69.2862 94.5006,59.7362 101.416,52.3022 c 4.7592,-5.1166 12.1401,-4.2681 11.9943,3.297 -0.022,1.1328 1.7378,1.1328 1.7598,0 0.316,-16.3642 -14.9411,-8.3727 -19.2635,1.8593 -7.6938,18.2125 12.14,37.7011 23.628,49.2159 0.8009,0.8033 2.0459,-0.4411 1.2444,-1.2444 z" />
        <path
           id="path12"
           style="fill:#ffffff;fill-rule:evenodd"
           d="m 113.7427,61.1721 c 1.5098,0 1.5122,-2.3466 0,-2.3466 -1.5103,0 -1.5127,2.3466 0,2.3466 z" />
        <path
           id="path14"
           style="fill:#ffffff;fill-rule:evenodd"
           d="m 154.7701,144.7726 c 1.5097,0 1.5121,-2.3467 0,-2.3467 -1.5097,0 -1.5128,2.3467 0,2.3467 z" />
      </g>
      <path
         id="path17"
         style="fill:#f88c6f;fill-rule:evenodd"
         d="M 136.058,117.0961 C 123.9284,99.6418 117.5064,76.9983 125.2447,56.3593 c 7.5676,-20.1822 38.9741,-41.8527 55.1212,-17.777 8.2788,12.3426 5.4045,29.9115 -0.7698,42.5084 -8.7692,17.8929 -25.9868,28.9264 -44.2243,35.4551 -1.059,0.3795 -0.6021,2.0807 0.4678,1.697 20.7751,-7.437 40.1893,-20.8007 47.877,-42.373 5.1166,-14.3573 5.8156,-34.0295 -7.4993,-44.3506 -16.6838,-12.9318 -38.9875,0.2983 -48.4301,15.6316 -13.7505,22.3288 -7.3992,50.4719 6.7507,70.834 0.6423,0.9235 2.1685,0.0445 1.5201,-0.8887 z" />
      <path
         id="path19"
         style="fill:#f88c6f;fill-rule:evenodd"
         d="m 136.4539,117.1607 c -5.2349,-18.074 -7.5761,-37.8084 1.797,-54.9833 8.0812,-14.807 22.139,-25.7484 39.7403,-24.0538 25.7648,2.4808 26.0118,36.2304 12.5743,52.0487 -13.1605,15.4925 -35.1043,24.557 -54.9601,26.3424 -1.1187,0.1007 -1.1297,1.8611 0,1.7599 21.9755,-1.9758 49.4312,-13.1765 60.7605,-33.3977 7.9671,-14.2188 7.42,-39.9678 -10.432,-46.8174 -16.8309,-6.4573 -33.8441,2.3961 -44.1304,15.5719 -14.6581,18.7749 -13.3576,42.2083 -7.0466,63.9972 0.3148,1.0858 2.0136,0.624 1.697,-0.4679 z" />
      <path
         id="path21"
         style="fill:#f88c6f;fill-rule:evenodd"
         d="m 135.0759,118.657 c 8.4923,14.0627 22.7752,28.3829 40.1106,30.1079 7.3229,0.729 16.9418,-2.7047 19.3757,-10.3015 4.0235,-12.5597 -10.0228,-21.6931 -20.3938,-24.0684 -11.9003,-2.7254 -26.7572,0.5636 -38.5667,2.9694 -1.1089,0.2257 -0.6392,1.9227 0.4685,1.697 8.7393,-1.7805 17.7141,-2.9413 26.6224,-3.4 11.3922,-0.5875 30.8509,3.7569 30.6551,18.5498 -0.1629,12.3163 -14.5904,14.1536 -23.6048,11.483 -14.5373,-4.3077 -25.4921,-15.2491 -33.1469,-27.9253 -0.585,-0.9687 -2.1075,-0.0848 -1.5201,0.8881 z" />
      <path
         id="path23"
         style="fill:#f88c6f;fill-rule:evenodd"
         d="m 142.9838,129.008 c 13.3887,9.4914 31.8092,14.0023 47.6824,7.8597 7.0082,-2.7114 12.686,-8.6875 10.8566,-16.6412 -2.2069,-9.6 -12.7305,-14.261 -21.5741,-15.2662 -15.9891,-1.8172 -30.1025,6.0883 -44.2006,12.2608 -1.0351,0.4532 -0.1403,1.9703 0.8882,1.5201 9.2011,-4.029 18.0527,-8.887 27.9656,-11.0256 10.9152,-2.3546 27.4008,-2.0465 33.6892,9.1932 5.6875,10.1661 -3.3361,17.4213 -12.6134,19.6008 -14.7246,3.4593 -29.6876,-0.4306 -41.8057,-9.0217 -0.926,-0.6564 -1.8056,0.8692 -0.8882,1.5201 z" />
      <path
         id="path25"
         style="fill:#ffffff;fill-rule:evenodd"
         d="m 52.7897,177.0517 h -9.0048 c -1.1786,0 -1.6974,0.5184 -1.6974,1.6971 v 29.6076 c 0,1.1783 0.5188,1.6971 1.6974,1.6971 h 9.3348 c 7.9203,0 11.975,-3.3001 11.975,-9.5233 0,-4.5731 -4.0547,-7.3077 -6.4591,-7.7791 l -0.047,-0.1885 c 2.8287,-1.0372 5.1389,-3.9603 5.1389,-7.1663 0,-4.9501 -3.3004,-8.3446 -10.9378,-8.3446 z m -0.5187,5.186 c 3.5359,0 5.1389,1.3671 5.1389,4.1017 0,2.357 -1.9329,4.2429 -5.1389,4.2429 h -4.0544 v -8.3446 z m 0.6129,13.5779 c 3.8188,0 5.8932,1.5557 5.8932,4.3844 0,2.876 -1.8386,4.6204 -5.1389,4.6204 h -5.4216 v -9.0048 z m 26.92,-10.7492 c -6.8831,0 -11.2677,3.8659 -11.2677,12.8236 0,7.9203 3.7718,12.4934 12.022,12.4934 3.4418,0 8.4864,-1.3201 8.4864,-3.253 0,-0.8014 -1.2731,-3.1116 -2.1688,-3.1116 -0.5658,0 -2.7343,1.6501 -6.1288,1.6501 -3.6303,0 -5.7518,-1.603 -6.082,-5.9403 h 13.0595 c 0.6128,0 2.1214,-1.7445 2.1214,-2.4514 0,-7.0719 -2.9701,-12.2108 -10.042,-12.2108 z m -0.047,4.7145 c 2.8757,0 4.2431,2.2159 4.2431,5.7518 h -9.335 c 0.4717,-4.1017 2.3573,-5.7518 5.0919,-5.7518 z M 99.7465,179.409 h -1.1313 c -1.3201,0 -2.0273,0.4714 -2.1688,1.3201 l -0.5658,4.6672 h -1.3671 c -0.8487,0 -1.2257,0.6129 -1.2257,2.0274 v 0.7072 c 0,1.4142 0.377,2.0271 1.2257,2.0271 h 1.3671 v 13.0121 c 0,5.3274 2.9231,7.2133 6.6005,7.2133 1.3671,0 4.1014,-0.1414 4.1014,-1.98 0,-0.3773 -0.424,-2.9701 -1.2727,-2.9701 -0.33,0 -0.8017,0.2356 -1.556,0.2356 -1.2727,0 -2.027,-0.66 -2.027,-2.5929 v -12.918 h 2.9228 c 0.8957,0 1.273,-0.6129 1.273,-2.0271 v -0.7072 c 0,-1.4145 -0.3773,-2.0274 -1.273,-2.0274 h -2.9228 v -4.6672 c 0,-0.8487 -0.5658,-1.3201 -1.9803,-1.3201 z m 15.0395,-4.8561 h -0.8957 c -1.7445,0 -2.4988,0.4714 -2.4988,1.3201 v 32.9548 c 0,0.8484 0.7543,1.3201 2.4988,1.3201 h 0.8957 c 1.7444,0 2.4987,-0.4717 2.4987,-1.3201 v -15.9353 c 0.33,-0.6602 2.0274,-2.9231 4.5258,-2.9231 2.4988,0 3.6774,1.3201 3.6774,3.536 v 15.3224 c 0,0.8484 0.7543,1.3201 2.4988,1.3201 h 0.8957 c 1.7445,0 2.4987,-0.4717 2.4987,-1.3201 V 192.704 c 0,-5.6576 -3.1586,-7.6376 -7.2603,-7.6376 -2.8758,0 -5.3275,1.5086 -6.8361,3.2059 V 175.873 c 0,-0.8487 -0.7543,-1.3201 -2.4987,-1.3201 z m 45.4484,2.4988 h -9.0048 c -1.1786,0 -1.6974,0.5184 -1.6974,1.6971 v 29.6076 c 0,1.1783 0.5188,1.6971 1.6974,1.6971 h 9.3348 c 7.9203,0 11.975,-3.3001 11.975,-9.5233 0,-4.5731 -4.0547,-7.3077 -6.4591,-7.7791 l -0.047,-0.1885 c 2.8287,-1.0372 5.1389,-3.9603 5.1389,-7.1663 0,-4.9501 -3.3004,-8.3446 -10.9378,-8.3446 z m -0.5187,5.186 c 3.5359,0 5.1389,1.3671 5.1389,4.1017 0,2.357 -1.9329,4.2429 -5.1389,4.2429 h -4.0544 v -8.3446 z m 0.6129,13.5779 c 3.8188,0 5.8932,1.5557 5.8932,4.3844 0,2.876 -1.8386,4.6204 -5.1389,4.6204 h -5.4216 v -9.0048 z m 27.6273,-10.7492 c -2.4988,0 -4.0544,1.603 -5.2804,3.5359 -0.2829,-1.1786 -0.4244,-3.0645 -1.7915,-3.0645 -0.9902,0 -4.2903,0.3299 -4.2903,1.3671 0,0.6602 0.5658,1.9803 0.5658,6.3646 v 15.5583 c 0,0.8484 0.7543,1.3201 2.4988,1.3201 h 0.8957 c 1.7445,0 2.4988,-0.4717 2.4988,-1.3201 v -15.9353 c 0.3299,-0.5658 1.8385,-2.5458 3.9603,-2.5458 1.1786,0 1.6971,0.4244 2.3572,0.4244 0.8014,0 1.2728,-2.5461 1.2728,-3.4418 0,-0.9428 -0.5658,-2.2629 -2.6872,-2.2629 z m 23.5255,0.2358 h -0.9428 c -1.6971,0 -2.4517,0.4714 -2.4517,1.3198 v 15.9353 c -0.9428,1.4144 -2.5928,2.923 -4.5728,2.923 -2.4517,0 -3.5359,-1.32 -3.5359,-3.5359 V 186.622 c 0,-0.8484 -0.7543,-1.3198 -2.4988,-1.3198 h -0.8957 c -1.7445,0 -2.4988,0.4714 -2.4988,1.3198 v 16.124 c 0,5.0916 2.4514,7.6374 7.2134,7.6374 2.9228,0 5.5629,-1.603 7.1189,-3.5359 0.2829,1.273 0.4243,3.253 1.8385,3.253 0.9431,0 4.2432,-0.3299 4.2432,-1.3671 0,-0.7073 -0.5658,-1.98 -0.5658,-6.5061 V 186.622 c 0,-0.8484 -0.7072,-1.3198 -2.4517,-1.3198 z m 35.4065,-0.2358 c -3.0643,0 -5.7989,1.7915 -7.3075,3.6773 -1.0842,-2.7345 -3.5359,-3.6773 -6.4117,-3.6773 -3.0645,0 -5.6103,1.7444 -7.0718,3.5359 -0.2829,-1.1786 -0.4244,-3.0645 -1.7915,-3.0645 -0.9902,0 -4.2903,0.3299 -4.2903,1.3671 0,0.6602 0.5655,1.9803 0.5655,6.3646 v 15.5583 c 0,0.8484 0.7543,1.3201 2.4988,1.3201 h 0.8957 c 1.7445,0 2.4988,-0.4717 2.4988,-1.3201 v -15.9353 c 0.3299,-0.7072 1.9803,-2.9231 4.4317,-2.9231 2.4516,0 3.4415,1.3201 3.4415,3.536 v 15.3224 c 0,0.8484 0.7546,1.3201 2.4987,1.3201 h 0.8958 c 1.7444,0 2.4987,-0.4717 2.4987,-1.3201 v -15.9823 c 0.6602,-0.9902 2.1218,-2.8761 4.4317,-2.8761 2.4046,0 3.4418,1.3201 3.4418,3.536 v 15.3224 c 0,0.8484 0.707,1.3201 2.4514,1.3201 h 0.9431 c 1.7442,0 2.4514,-0.4717 2.4514,-1.3201 V 192.704 c 0,-5.6576 -2.9701,-7.6376 -7.0718,-7.6376 z" />
      <path
         id="path27"
         style="fill:#ffffff;fill-rule:evenodd"
         d="m 55.3673,221.2515 c -2.245,0 -4.0241,1.3297 -4.0241,3.454 0,2.0378 1.658,2.8151 2.9189,3.3678 0.9671,0.4317 2.1242,0.9153 2.1242,2.1589 0,1.1571 -0.9844,2.0032 -2.5044,2.0032 -0.8807,0 -1.6922,-0.2763 -2.2969,-0.6562 -0.1726,-0.1037 -0.3282,-0.2245 -0.449,-0.2245 -0.2591,0 -0.3282,0.5698 -0.3282,0.8116 0,1.0882 1.5026,1.3819 2.7808,1.3819 3.0223,0 4.3693,-1.641 4.3693,-3.4543 0,-1.986 -1.6234,-2.6598 -3.0742,-3.316 -1.0191,-0.4663 -1.986,-0.9499 -1.986,-2.1935 0,-1.347 1.1572,-2.0205 2.4696,-2.0205 0.9326,0 1.5372,0.3455 1.8652,0.5355 0.1556,0.0861 0.2245,0.1207 0.2937,0.1207 0.259,0 0.6735,-0.6735 0.6735,-0.9499 0,-0.5354 -1.4681,-1.0187 -2.8324,-1.0187 z m 8.7908,3.0568 c -3.2468,0 -4.5592,2.6595 -4.5592,5.5265 0,2.4179 1.2262,3.7134 3.575,3.7134 2.7632,0 4.4558,-1.9171 4.4558,-5.4922 0,-2.4352 -1.209,-3.7477 -3.4716,-3.7477 z m -0.1899,1.2433 c 1.468,0 2.1588,0.8119 2.1588,2.539 0,2.7459 -1.019,4.214 -2.8669,4.214 -1.4681,0 -2.1762,-0.8118 -2.1762,-2.5217 0,-2.5906 0.9845,-4.2313 2.8843,-4.2313 z m 7.9098,-5.0947 h -0.0689 c -0.449,0 -0.6908,0.1035 -0.7254,0.3799 0,0.0518 -1.1228,10.2415 -1.1228,11.0188 0,1.1744 0.57,1.6926 1.5545,1.6926 0.311,0 0.9499,-0.1384 1.0364,-0.5701 0.0688,-0.3798 0.0688,-0.6216 0.0688,-0.6389 0,-0.1038 -0.0518,-0.1211 -0.1034,-0.1211 -0.1038,0 -0.2591,0.0865 -0.4663,0.0865 -0.2764,0 -0.6219,0 -0.6219,-0.7081 0,-0.5182 1.1055,-10.7597 1.1055,-10.7597 0,-0.2591 -0.1729,-0.3799 -0.6565,-0.3799 z m 10.794,11.7612 c -0.1034,0 -0.2588,0.0865 -0.4663,0.0865 -0.2761,0 -0.6216,0 -0.6216,-0.7081 0,-0.5182 0.6735,-6.8391 0.6735,-6.8391 0,-0.2591 -0.1726,-0.3802 -0.6562,-0.3802 h -0.0692 c -0.449,0 -0.6908,0.1038 -0.7254,0.3802 l -0.4836,4.5938 c -0.7426,2.3661 -2.0032,2.9361 -2.7632,2.9361 -0.8807,0 -1.3124,-0.449 -1.3124,-1.3297 0,-0.2418 0.6216,-6.2002 0.6216,-6.2002 0,-0.2591 -0.1726,-0.3802 -0.6562,-0.3802 h -0.0692 c -0.449,0 -0.6908,0.1038 -0.7254,0.3802 0,0 -0.6562,6.3209 -0.6562,6.5454 0,1.2782 0.6044,2.2454 2.2796,2.2454 1.0537,0 2.1589,-0.5009 3.0742,-1.8655 v 0.1729 c 0,1.1744 0.5701,1.6926 1.5545,1.6926 0.3107,0 0.9499,-0.1384 1.0361,-0.5701 0.0692,-0.3798 0.0692,-0.6216 0.0692,-0.6389 0,-0.1038 -0.0519,-0.1211 -0.1038,-0.1211 z m 6.0965,-7.9098 c -3.316,0 -4.5593,2.6422 -4.5593,5.6129 0,2.4353 1.1571,3.5059 3.333,3.6097 -0.3279,0.8115 -0.4317,1.1052 -0.4317,1.1052 0,0.4317 1.0364,0.2418 1.0364,0.898 0,0.6219 -0.6047,0.6908 -1.0364,0.6908 -0.8116,0 -1.2779,-0.4317 -1.347,-0.4317 -0.0865,0 -0.2072,0 -0.2072,0.57 0,0.6217 1.2608,0.7081 1.6752,0.7081 0.8462,0 2.1589,-0.2072 2.1589,-1.7098 0,-0.9672 -0.9845,-1.0709 -1.3473,-1.0709 h -0.0689 l 0.3107,-0.7597 c 0.7254,-0.0346 1.9862,-0.1902 2.107,-0.7773 0.0692,-0.3455 0.0864,-0.7427 0.0864,-0.7773 0,-0.1899 -0.0345,-0.2072 -0.1034,-0.2072 -0.0692,0 -0.2075,0.0692 -0.4147,0.1554 -0.3799,0.1556 -1.0018,0.3801 -1.8998,0.3801 -1.6234,0 -2.3488,-0.76 -2.3488,-2.4871 0,-3.1258 1.2781,-4.2659 2.8843,-4.2659 0.7945,0 1.2608,0.1729 1.5372,0.311 0.2072,0.121 0.328,0.2072 0.3798,0.2072 0.2937,0 0.6735,-0.6389 0.6735,-0.8634 0,-0.3629 -0.8461,-0.8981 -2.4179,-0.8981 z m 6.9948,-2.7807 c -0.6908,0 -1.209,0.3109 -1.5889,1.1916 -0.0864,0.2245 -0.0864,0.3456 0.1208,0.432 l 0.1729,0.0689 c 0.2245,0.0865 0.3107,0.0519 0.4836,-0.2072 0.2418,-0.3798 0.4317,-0.5182 0.7254,-0.5182 0.8115,0 1.9859,0.7427 3.0569,0.7427 0.6908,0 1.1917,-0.3109 1.5715,-1.1744 0.1208,-0.2591 0.1037,-0.3625 -0.121,-0.449 l -0.1381,-0.0519 c -0.2072,-0.0861 -0.3455,-0.0518 -0.5182,0.2073 -0.2418,0.3801 -0.449,0.5008 -0.7599,0.5008 -0.8116,0 -1.986,-0.7426 -3.005,-0.7426 z m 1.347,2.7807 c -3.2468,0 -4.5593,2.6595 -4.5593,5.5265 0,2.4179 1.2263,3.7134 3.5751,3.7134 2.7632,0 4.4558,-1.9171 4.4558,-5.4922 0,-2.4352 -1.209,-3.7477 -3.4716,-3.7477 z m -0.1899,1.2433 c 1.468,0 2.1588,0.8119 2.1588,2.539 0,2.7459 -1.019,4.214 -2.8669,4.214 -1.4681,0 -2.1762,-0.8118 -2.1762,-2.5217 0,-2.5906 0.9845,-4.2313 2.8843,-4.2313 z m 8.4625,4.2143 c 2.3488,0 4.663,-0.76 4.663,-3.1606 0,-0.8808 -0.7254,-2.297 -2.9013,-2.297 -3.3851,0 -4.7494,2.5733 -4.7494,5.6648 0,3.0915 2.1932,3.5751 3.903,3.5751 0.7427,0 2.6771,-0.2937 2.8324,-1.1056 0.0692,-0.3625 0.0865,-0.7253 0.0865,-0.7769 0,-0.2075 -0.0519,-0.2075 -0.1211,-0.2075 -0.2418,0 -1.1225,0.8464 -2.6767,0.8464 -1.52,0 -2.5217,-0.57 -2.5217,-2.4871 v -0.1726 c 0.3628,0.0691 0.8464,0.121 1.4853,0.121 z m 1.6061,-4.2143 c 0.9845,0 1.5545,0.5528 1.5545,1.1917 0,1.779 -2.8323,1.779 -3.3332,1.779 h -1.2263 c 0.2245,-1.6061 1.0018,-2.9707 3.005,-2.9707 z m 7.9447,-1.2433 c -1.7099,0 -3.1088,0.9842 -3.1088,2.4696 0,0.9845 0.6047,1.6234 1.9171,2.3661 0.898,0.5009 1.8306,0.898 1.8306,1.7617 0,0.76 -0.7254,1.3989 -1.8825,1.3989 -0.8461,0 -1.4507,-0.3455 -1.7787,-0.5528 -0.1211,-0.0691 -0.2072,-0.1207 -0.2591,-0.1207 -0.1383,0 -0.449,0.6043 -0.449,0.898 0,0.3626 0.777,1.0191 2.4179,1.0191 2.2451,0 3.4368,-1.2263 3.4368,-2.6944 0,-1.0536 -0.6217,-1.7617 -2.1416,-2.5906 -1.0018,-0.5354 -1.5715,-0.8464 -1.5715,-1.5545 0,-0.7081 0.6043,-1.1571 1.6061,-1.1571 0.6562,0 1.0533,0.1902 1.3297,0.3283 0.0865,0.0518 0.1899,0.0864 0.2418,0.0864 0.1899,0 0.5873,-0.5527 0.5873,-0.8637 0,-0.5525 -1.33,-0.7943 -2.1761,-0.7943 z m 11.0358,5.4576 c 2.3488,0 4.663,-0.76 4.663,-3.1606 0,-0.8808 -0.7254,-2.297 -2.9012,-2.297 -3.3852,0 -4.7495,2.5733 -4.7495,5.6648 0,3.0915 2.1932,3.5751 3.903,3.5751 0.7427,0 2.6771,-0.2937 2.8324,-1.1056 0.0692,-0.3625 0.0865,-0.7253 0.0865,-0.7769 0,-0.2075 -0.0519,-0.2075 -0.1211,-0.2075 -0.2418,0 -1.1225,0.8464 -2.6767,0.8464 -1.52,0 -2.5217,-0.57 -2.5217,-2.4871 v -0.1726 c 0.3628,0.0691 0.8464,0.121 1.4853,0.121 z m 1.6061,-4.2143 c 0.9845,0 1.5546,0.5528 1.5546,1.1917 0,1.779 -2.8324,1.779 -3.3333,1.779 h -1.2263 c 0.2245,-1.6061 1.0018,-2.9707 3.005,-2.9707 z m 17.6854,6.6665 c -0.1038,0 -0.2591,0.0865 -0.4663,0.0865 -0.2764,0 -0.6219,0 -0.6219,-0.7081 0,-0.3628 0.5009,-4.7494 0.5009,-5.0431 0,-1.2779 -0.6044,-2.2451 -2.2797,-2.2451 -1.0709,0 -2.1761,0.5698 -2.9534,1.8652 -0.1207,-1.0882 -0.7597,-1.8652 -2.2623,-1.8652 -1.0364,0 -2.1243,0.5179 -2.8843,1.7442 v -0.328 c 0,-0.4836 -0.1034,-1.1571 -0.449,-1.1571 -0.1207,0 -0.9672,0.017 -0.9672,0.3972 0,0.1034 0.0173,0.1726 0.0173,0.587 0,0.8119 -0.7599,7.5646 -0.7599,7.5646 0,0.2075 0.1899,0.3628 0.6565,0.3628 h 0.0689 c 0.449,0 0.6908,-0.1383 0.7253,-0.3801 l 0.5182,-4.9567 c 0.76,-2.0551 1.8479,-2.5733 2.556,-2.5733 0.8807,0 1.3127,0.449 1.3127,1.33 0,0.2761 -0.6392,6.2173 -0.6392,6.2173 0,0.2075 0.1902,0.3628 0.6565,0.3628 h 0.0689 c 0.449,0 0.7081,-0.1383 0.7254,-0.3801 l 0.5182,-4.9221 c 0.7599,-2.0724 1.8652,-2.6079 2.5733,-2.6079 0.8807,0 1.3127,0.449 1.3127,1.33 0,0.328 -0.4836,4.3866 -0.4836,4.9567 0,1.1744 0.5698,1.6926 1.5542,1.6926 0.311,0 0.9499,-0.1384 1.0364,-0.5701 0.0689,-0.3798 0.0689,-0.6216 0.0689,-0.6389 0,-0.1038 -0.0516,-0.1211 -0.1035,-0.1211 z m 10.362,-7.9098 c -3.2468,0 -4.5592,2.6595 -4.5592,5.5265 0,2.4179 1.2263,3.7134 3.5751,3.7134 2.7632,0 4.4557,-1.9171 4.4557,-5.4922 0,-2.4352 -1.2089,-3.7477 -3.4716,-3.7477 z m -0.1899,1.2433 c 1.4681,0 2.1589,0.8119 2.1589,2.539 0,2.7459 -1.0191,4.214 -2.867,4.214 -1.468,0 -2.1761,-0.8118 -2.1761,-2.5217 0,-2.5906 0.9844,-4.2313 2.8842,-4.2313 z m 10.1897,-1.2433 c -0.898,0 -1.7617,0.6563 -2.2972,1.7442 0.0173,-0.2072 0.0346,-0.4144 0.0346,-0.6216 0,-0.4663 -0.1035,-0.8635 -0.4663,-0.8635 -0.1208,0 -0.9672,0.017 -0.9672,0.3972 0,0.1553 0.0173,0.2763 0.0173,0.587 0,0.4147 -0.0689,1.1744 -0.1034,1.4508 l -0.6566,6.1138 c 0,0.2075 0.1903,0.3628 0.6566,0.3628 h 0.0688 c 0.4493,0 0.6908,-0.1383 0.7254,-0.3801 0,0 0.2591,-2.4177 0.4836,-4.6284 0.4663,-1.7099 1.2954,-2.7287 2.1935,-2.7287 0.449,0 0.5354,0.1899 0.6735,0.1899 0.2072,0 0.5009,-0.5354 0.5009,-0.9671 0,-0.5355 -0.5182,-0.6563 -0.8635,-0.6563 z m 9.015,0.0689 h -0.1034 c -0.4836,0 -0.6047,0.3629 -0.7773,0.8637 -0.3971,-0.3628 -1.1744,-0.9326 -2.2796,-0.9326 -2.6252,0 -4.3177,2.297 -4.3177,5.5092 0,2.9188 1.8133,3.6269 2.9704,3.6269 1.0363,0 2.0554,-0.5182 2.7808,-1.8652 -0.2418,3.0915 -1.1228,4.2832 -2.7981,4.2832 -1.796,0 -2.5214,-0.9326 -2.7286,-0.9326 -0.0865,0 -0.2418,0.1034 -0.2418,0.9499 0,0.5181 1.2089,1.2262 2.9704,1.2262 2.4698,0 3.7823,-1.2435 4.2143,-5.3713 l 0.7426,-6.9945 c 0,-0.2245 -0.0864,-0.3629 -0.432,-0.3629 z m -1.2778,2.7289 -0.2245,2.1243 c -0.7254,2.3142 -1.8998,2.9532 -2.6771,2.9532 -0.9844,0 -1.796,-0.5871 -1.796,-2.4696 0,-2.0724 0.5871,-4.1451 2.9531,-4.1451 0.8981,0 1.5373,0.4147 1.8825,0.6735 -0.0518,0.2764 -0.1034,0.5528 -0.138,0.8637 z m 11.3295,5.112 c -0.1038,0 -0.2591,0.0865 -0.4663,0.0865 -0.2764,0 -0.6219,0 -0.6219,-0.7081 0,-0.4663 0.6908,-6.8564 0.6908,-6.8564 0,-0.2245 -0.0862,-0.3629 -0.4317,-0.3629 h -0.1035 c -0.4836,0 -0.6046,0.3629 -0.7773,0.8637 -0.3798,-0.3628 -1.1225,-0.9326 -2.1934,-0.9326 -2.5733,0 -4.2313,2.297 -4.2313,5.5092 0,3.0053 1.7617,3.7307 2.8843,3.7307 1.0017,0 1.9859,-0.5182 2.6943,-1.8655 v 0.1729 c 0,1.1744 0.5698,1.6926 1.5542,1.6926 0.311,0 0.9499,-0.1384 1.0364,-0.5701 0.0689,-0.3798 0.0689,-0.6216 0.0689,-0.6389 0,-0.1038 -0.0519,-0.1211 -0.1035,-0.1211 z m -2.107,-5.112 c 0,0 -0.121,1.1226 -0.2245,2.2624 -0.7081,2.2799 -1.8309,2.9188 -2.5906,2.9188 -0.9329,0 -1.7098,-0.6046 -1.7098,-2.5733 0,-2.0724 0.5697,-4.1451 2.8669,-4.1451 0.8635,0 1.4678,0.4147 1.7961,0.6735 -0.0519,0.2764 -0.1038,0.5528 -0.1381,0.8637 z m 11.4157,5.112 c -0.1035,0 -0.2591,0.0865 -0.4663,0.0865 -0.2764,0 -0.6216,0 -0.6216,-0.7081 0,-0.3628 0.5008,-4.7494 0.5008,-5.0431 0,-1.2779 -0.6046,-2.2451 -2.2799,-2.2451 -1.0533,0 -2.1243,0.4663 -3.0569,1.7442 v -0.328 c 0,-0.6046 -0.1034,-1.1571 -0.449,-1.1571 -0.1207,0 -0.9671,0.017 -0.9671,0.3972 0,0.1034 0.0172,0.1726 0.0172,0.587 0,0.8119 -0.7599,7.5646 -0.7599,7.5646 0,0.2075 0.1899,0.3628 0.6565,0.3628 h 0.0689 c 0.449,0 0.6908,-0.1383 0.7254,-0.3801 0,0 0.2763,-2.5215 0.5008,-4.7492 0.7427,-2.228 1.9863,-2.7808 2.746,-2.7808 0.881,0 1.3127,0.449 1.3127,1.33 0,0.328 -0.4836,4.3866 -0.4836,4.9567 0,1.1744 0.57,1.6926 1.5542,1.6926 0.311,0 0.9499,-0.1384 1.0364,-0.5701 0.0691,-0.3798 0.0691,-0.6216 0.0691,-0.6389 0,-0.1038 -0.0518,-0.1211 -0.1037,-0.1211 z m 3.9722,-11.7612 h -0.2072 c -0.449,0 -0.6908,0.1035 -0.7254,0.3799 l -0.1038,1.019 c 0,0.311 0.2764,0.3799 0.7254,0.3799 h 0.2072 c 0.4836,0 0.6565,-0.1554 0.6565,-0.3799 l 0.1035,-1.019 c 0,-0.2764 -0.1726,-0.3799 -0.6562,-0.3799 z m -0.4836,3.9203 h -0.0692 c -0.449,0 -0.6908,0.1038 -0.7254,0.3802 -0.0343,0 -0.7081,6.4417 -0.7081,7.1498 0,1.1401 0.5701,1.641 1.5373,1.641 0.3109,0 0.9499,-0.1384 1.0363,-0.5701 0.0689,-0.3798 0.0689,-0.6216 0.0689,-0.6389 0,-0.1038 -0.0519,-0.1211 -0.1035,-0.1211 -0.1037,0 -0.2591,0.0865 -0.4663,0.0865 -0.2763,0 -0.6046,0 -0.6046,-0.7081 0,-0.5182 0.6908,-6.8391 0.6908,-6.8391 0,-0.2591 -0.1726,-0.3802 -0.6562,-0.3802 z m 9.8444,0.0346 h -6.0621 c -0.4145,0 -0.4318,0.5873 -0.4318,0.7773 0,0.2763 0.0519,0.4663 0.2937,0.4663 h 4.4212 l -5.7509,6.7184 c -0.0692,0.0688 -0.0865,0.1899 -0.0865,0.2761 0,0.3455 0.1726,0.7945 0.2937,0.7945 h 6.3901 c 0.4145,0 0.4317,-0.5873 0.4317,-0.7773 0,-0.2763 -0.0518,-0.4662 -0.2936,-0.4662 h -4.7495 l 5.7339,-6.7182 c 0.0346,-0.0345 0.0692,-0.121 0.0692,-0.2418 0,-0.3282 -0.1037,-0.8291 -0.2591,-0.8291 z m 9.4125,7.8063 c -0.1038,0 -0.2591,0.0865 -0.4663,0.0865 -0.2764,0 -0.622,0 -0.622,-0.7081 0,-0.4663 0.6909,-6.8564 0.6909,-6.8564 0,-0.2245 -0.0862,-0.3629 -0.4318,-0.3629 h -0.1034 c -0.4836,0 -0.6047,0.3629 -0.7773,0.8637 -0.3798,-0.3628 -1.1225,-0.9326 -2.1934,-0.9326 -2.5733,0 -4.2313,2.297 -4.2313,5.5092 0,3.0053 1.7617,3.7307 2.8842,3.7307 1.0018,0 1.986,-0.5182 2.6944,-1.8655 v 0.1729 c 0,1.1744 0.5697,1.6926 1.5542,1.6926 0.311,0 0.9499,-0.1384 1.0364,-0.5701 0.0688,-0.3798 0.0688,-0.6216 0.0688,-0.6389 0,-0.1038 -0.0518,-0.1211 -0.1034,-0.1211 z m -2.107,-5.112 c 0,0 -0.1211,1.1226 -0.2245,2.2624 -0.7081,2.2799 -1.8309,2.9188 -2.5906,2.9188 -0.9329,0 -1.7099,-0.6046 -1.7099,-2.5733 0,-2.0724 0.5698,-4.1451 2.867,-4.1451 0.8634,0 1.4678,0.4147 1.796,0.6735 -0.0518,0.2764 -0.1037,0.5528 -0.138,0.8637 z m 8.0651,-2.7978 c -3.316,0 -4.5592,2.6422 -4.5592,5.6129 0,2.4353 1.1571,3.5059 3.3329,3.6097 -0.3279,0.8115 -0.4317,1.1052 -0.4317,1.1052 0,0.4317 1.0364,0.2418 1.0364,0.898 0,0.6219 -0.6047,0.6908 -1.0364,0.6908 -0.8115,0 -1.2778,-0.4317 -1.347,-0.4317 -0.0865,0 -0.2072,0 -0.2072,0.57 0,0.6217 1.2608,0.7081 1.6753,0.7081 0.8461,0 2.1588,-0.2072 2.1588,-1.7098 0,-0.9672 -0.9844,-1.0709 -1.3473,-1.0709 h -0.0689 l 0.3107,-0.7597 c 0.7254,-0.0346 1.9863,-0.1902 2.107,-0.7773 0.0692,-0.3455 0.0865,-0.7427 0.0865,-0.7773 0,-0.1899 -0.0346,-0.2072 -0.1035,-0.2072 -0.0692,0 -0.2075,0.0692 -0.4147,0.1554 -0.3798,0.1556 -1.0018,0.3801 -1.8998,0.3801 -1.6234,0 -2.3488,-0.76 -2.3488,-2.4871 0,-3.1258 1.2782,-4.2659 2.8843,-4.2659 0.7945,0 1.2608,0.1729 1.5372,0.311 0.2072,0.121 0.328,0.2072 0.3799,0.2072 0.2936,0 0.6735,-0.6389 0.6735,-0.8634 0,-0.3629 -0.8462,-0.8981 -2.418,-0.8981 z m 5.1469,-1.1571 0.1726,0.0689 c 0.2245,0.0865 0.311,0.0519 0.4836,-0.2072 0.2418,-0.3798 0.4317,-0.5182 0.7254,-0.5182 0.8118,0 1.9862,0.7427 3.0569,0.7427 0.6908,0 1.1917,-0.3109 1.5718,-1.1744 0.1207,-0.2591 0.1034,-0.3625 -0.1211,-0.449 l -0.138,-0.0519 c -0.2072,-0.0861 -0.3456,-0.0518 -0.5182,0.2073 -0.2418,0.3801 -0.449,0.5008 -0.76,0.5008 -0.8118,0 -1.9862,-0.7426 -3.005,-0.7426 -0.6908,0 -1.2089,0.3109 -1.5891,1.1916 -0.0861,0.2245 -0.0861,0.3456 0.1211,0.432 z m 6.6838,9.0669 c -0.1038,0 -0.2591,0.0865 -0.4663,0.0865 -0.2764,0 -0.6219,0 -0.6219,-0.7081 0,-0.4663 0.6908,-6.8564 0.6908,-6.8564 0,-0.2245 -0.0862,-0.3629 -0.4317,-0.3629 h -0.1035 c -0.4836,0 -0.6046,0.3629 -0.7773,0.8637 -0.3798,-0.3628 -1.1225,-0.9326 -2.1934,-0.9326 -2.5733,0 -4.2313,2.297 -4.2313,5.5092 0,3.0053 1.7617,3.7307 2.8843,3.7307 1.0017,0 1.9859,-0.5182 2.6943,-1.8655 v 0.1729 c 0,1.1744 0.5698,1.6926 1.5542,1.6926 0.311,0 0.9499,-0.1384 1.0364,-0.5701 0.0689,-0.3798 0.0689,-0.6216 0.0689,-0.6389 0,-0.1038 -0.0519,-0.1211 -0.1035,-0.1211 z m -2.107,-5.112 c 0,0 -0.121,1.1226 -0.2245,2.2624 -0.7081,2.2799 -1.8309,2.9188 -2.5906,2.9188 -0.9329,0 -1.7098,-0.6046 -1.7098,-2.5733 0,-2.0724 0.5697,-4.1451 2.8669,-4.1451 0.8634,0 1.4678,0.4147 1.796,0.6735 -0.0518,0.2764 -0.1037,0.5528 -0.138,0.8637 z m 8.0305,-2.7978 c -3.2468,0 -4.5592,2.6595 -4.5592,5.5265 0,2.4179 1.2263,3.7134 3.5751,3.7134 2.7632,0 4.4557,-1.9171 4.4557,-5.4922 0,-2.4352 -1.2089,-3.7477 -3.4716,-3.7477 z m -0.1899,1.2433 c 1.4681,0 2.1589,0.8119 2.1589,2.539 0,2.7459 -1.0191,4.214 -2.867,4.214 -1.468,0 -2.1761,-0.8118 -2.1761,-2.5217 0,-2.5906 0.9844,-4.2313 2.8842,-4.2313 z" />
    </g>
  </g>
</svg>
