<?xml version="1.0" encoding="UTF-8" standalone="no"?>
<svg
   xmlns:dc="http://purl.org/dc/elements/1.1/"
   xmlns:cc="http://creativecommons.org/ns#"
   xmlns:rdf="http://www.w3.org/1999/02/22-rdf-syntax-ns#"
   xmlns:svg="http://www.w3.org/2000/svg"
   xmlns="http://www.w3.org/2000/svg"
   viewBox="0 0 296.0473 263.38681"
   id="svg31"
   height="263.38681"
   width="296.0473"
   version="1.1">
  <metadata
     id="metadata37">
    <rdf:RDF>
      <cc:Work
         rdf:about="">
        <dc:format>image/svg+xml</dc:format>
        <dc:type
           rdf:resource="http://purl.org/dc/dcmitype/StillImage" />
      </cc:Work>
    </rdf:RDF>
  </metadata>
  <defs
     id="defs35" />
  <g
     id="Layer1000">
    <path
       id="path2"
       style="fill:#ffffff;fill-rule:evenodd"
       d="M -4e-4,-3e-4 H 296.0477 V 263.3871 H -4e-4 Z" />
    <g
       id="Layer1001">
      <g
         id="Layer1002">
        <path
           id="path4"
           style="fill:#38cbc8;fill-rule:evenodd"
           d="m 126.0236,115.6714 c -3.7258,-0.2861 -7.8384,-4.4835 -5.1727,-8.2715 2.3484,-3.3373 6.6416,-0.4472 7.4401,2.5162 0.3824,1.4182 0.319,3.0573 -0.183,4.4456 -0.3856,1.0669 1.3145,1.5268 1.697,0.4679 0.9564,-2.6431 0.5294,-5.8791 -1.1499,-8.1257 -1.9202,-2.5681 -6.0566,-3.43 -8.546,-1.1151 -2.1435,1.9934 -2.1032,5.6888 -0.7405,8.1129 1.2895,2.2936 4.1162,3.5349 6.655,3.7295 1.1291,0.0866 1.1236,-1.6738 0,-1.7598 z" />
        <path
           id="path6"
           style="fill:#38cbc8;fill-rule:evenodd"
           d="m 137.1566,117.5422 c -2.4565,-2.2106 -5.7529,-4.6134 -9.1481,-2.8718 -2.8072,1.4395 -3.58,4.4779 -3.0896,7.3937 1.6683,9.9288 15.3065,11.6465 23.2999,12.5762 1.123,0.1305 1.1138,-1.6305 0,-1.7599 -6.3543,-0.7393 -12.6415,-1.639 -17.9161,-5.5503 -2.6041,-1.9306 -5.1361,-5.9785 -3.2744,-9.3219 2.1703,-3.8984 6.4244,-1.4347 8.8839,0.779 0.84,0.7558 2.0886,-0.485 1.2444,-1.245 z" />
        <path
           id="path8"
           style="fill:#38cbc8;fill-rule:evenodd"
           d="m 142.5703,134.0089 c 3.0987,6.2958 6.7202,12.4689 11.566,17.5934 2.2753,2.4064 7.4944,8.2441 11.4721,6.6727 5.751,-2.2716 -5.1916,-11.1476 -6.9893,-12.6213 -0.8692,-0.7125 -2.1215,0.5252 -1.2443,1.2444 1.2834,1.0522 2.5259,2.1642 3.7142,3.3232 1.0388,1.0132 2.0837,2.0557 2.9524,3.2208 0.2251,0.3019 1.1321,1.2559 1.1095,1.7024 -0.0677,1.3006 -2.7163,0.8205 -3.8618,0.3227 -3.8204,-1.6598 -7.3943,-6.5507 -9.7867,-9.7897 -2.8902,-3.9143 -5.2673,-8.1989 -7.4127,-12.5567 -0.5001,-1.0163 -2.0184,-0.1257 -1.5194,0.8881 z" />
        <path
           id="path10"
           style="fill:#38cbc8;fill-rule:evenodd"
           d="m 120.7789,105.1734 c -8.183,-8.2026 -16.6076,-16.9493 -21.5181,-27.5912 -3.9466,-8.5527 -4.7604,-18.1027 2.1551,-25.5367 4.7592,-5.1166 12.1401,-4.2681 11.9943,3.297 -0.022,1.1328 1.7379,1.1328 1.7598,0 0.316,-16.3642 -14.9411,-8.3727 -19.2635,1.8593 -7.6939,18.2125 12.14,37.7012 23.628,49.216 0.8009,0.8033 2.0459,-0.4411 1.2444,-1.2444 z" />
        <path
           id="path12"
           style="fill:#38cbc8;fill-rule:evenodd"
           d="m 113.7426,60.9154 c 1.5098,0 1.5122,-2.3466 0,-2.3466 -1.5103,0 -1.5127,2.3466 0,2.3466 z" />
        <path
           id="path14"
           style="fill:#38cbc8;fill-rule:evenodd"
           d="m 154.7701,144.516 c 1.5097,0 1.5122,-2.3466 0,-2.3466 -1.5097,0 -1.5128,2.3466 0,2.3466 z" />
      </g>
      <path
         id="path17"
         style="fill:#f88c6f;fill-rule:evenodd"
         d="M 136.058,116.8395 C 123.9283,99.3852 117.5063,76.7417 125.2447,56.1026 c 7.5675,-20.1822 38.9742,-41.8528 55.1213,-17.777 8.2788,12.3426 5.4045,29.9115 -0.7698,42.5085 -8.7693,17.8929 -25.9869,28.9264 -44.2245,35.4552 -1.0589,0.3794 -0.602,2.0807 0.4679,1.697 20.7751,-7.4371 40.1893,-20.8008 47.8771,-42.3731 5.1166,-14.3574 5.8156,-34.0297 -7.4993,-44.3507 -16.6839,-12.9319 -38.9876,0.2983 -48.4303,15.6316 -13.7504,22.3288 -7.3992,50.472 6.7508,70.8341 0.6423,0.9236 2.1685,0.0446 1.5201,-0.8887 z" />
      <path
         id="path19"
         style="fill:#f88c6f;fill-rule:evenodd"
         d="m 136.4539,116.9041 c -5.235,-18.074 -7.5761,-37.8085 1.797,-54.9834 8.0812,-14.807 22.1391,-25.7484 39.7404,-24.0538 25.7648,2.4808 26.0119,36.2304 12.5744,52.0488 -13.1606,15.4925 -35.1045,24.557 -54.9603,26.3425 -1.1188,0.1006 -1.1297,1.861 0,1.7598 21.9755,-1.9758 49.4313,-13.1764 60.7607,-33.3977 7.9671,-14.2189 7.4199,-39.9679 -10.4321,-46.8175 -16.8309,-6.4574 -33.8442,2.3961 -44.1305,15.5719 -14.6581,18.7749 -13.3576,42.2084 -7.0466,63.9973 0.3147,1.0858 2.0136,0.624 1.697,-0.4679 z" />
      <path
         id="path21"
         style="fill:#f88c6f;fill-rule:evenodd"
         d="m 135.0759,118.4005 c 8.4923,14.0627 22.7753,28.3829 40.1106,30.1079 7.323,0.729 16.942,-2.7047 19.3758,-10.3015 4.0235,-12.5597 -10.0228,-21.6931 -20.3938,-24.0685 -11.9004,-2.7254 -26.7573,0.5637 -38.5668,2.9695 -1.109,0.2257 -0.6393,1.9227 0.4685,1.697 8.7393,-1.7806 17.7142,-2.9414 26.6225,-3.4001 11.3922,-0.5874 30.8509,3.7569 30.6551,18.5498 -0.1628,12.3164 -14.5904,14.1537 -23.6048,11.4831 -14.5374,-4.3077 -25.4922,-15.2491 -33.147,-27.9254 -0.585,-0.9687 -2.1075,-0.0848 -1.5201,0.8882 z" />
      <path
         id="path23"
         style="fill:#f88c6f;fill-rule:evenodd"
         d="m 142.9838,128.7514 c 13.3887,9.4915 31.8093,14.0024 47.6825,7.8598 7.0082,-2.7115 12.686,-8.6875 10.8566,-16.6412 -2.2069,-9.6001 -12.7305,-14.261 -21.5742,-15.2663 -15.9891,-1.8172 -30.1025,6.0883 -44.2006,12.2608 -1.0352,0.4533 -0.1403,1.9703 0.8882,1.5201 9.2011,-4.029 18.0527,-8.8869 27.9656,-11.0256 10.9152,-2.3545 27.4009,-2.0465 33.6893,9.1932 5.6876,10.1661 -3.336,17.4214 -12.6134,19.6009 -14.7246,3.4593 -29.6877,-0.4307 -41.8058,-9.0218 -0.926,-0.6563 -1.8056,0.8692 -0.8882,1.5201 z" />
    </g>
    <path
       id="path26"
       style="fill:#38cbc8;fill-rule:evenodd"
       d="m 52.7895,176.7951 h -9.0049 c -1.1786,0 -1.6973,0.5188 -1.6973,1.6974 v 29.6073 c 0,1.1787 0.5187,1.6974 1.6973,1.6974 h 9.3348 c 7.9206,0 11.975,-3.3001 11.975,-9.5235 0,-4.5732 -4.0544,-7.3075 -6.4588,-7.7789 l -0.0473,-0.1888 c 2.8287,-1.0371 5.1389,-3.9602 5.1389,-7.1659 0,-4.9505 -3.3001,-8.345 -10.9377,-8.345 z m -0.5188,5.186 c 3.536,0 5.139,1.3672 5.139,4.1018 0,2.3573 -1.933,4.2431 -5.139,4.2431 h -4.0544 v -8.3449 z m 0.6132,13.578 c 3.8185,0 5.8932,1.5559 5.8932,4.3846 0,2.876 -1.8388,4.6202 -5.1389,4.6202 h -5.4219 v -9.0048 z m 26.9203,-10.7493 c -6.8834,0 -11.268,3.8662 -11.268,12.8237 0,7.9205 3.7718,12.4937 12.0223,12.4937 3.4415,0 8.4861,-1.3201 8.4861,-3.2531 0,-0.8013 -1.2728,-3.1115 -2.1685,-3.1115 -0.5658,0 -2.7346,1.65 -6.1291,1.65 -3.6303,0 -5.7518,-1.603 -6.0817,-5.9403 h 13.0592 c 0.6128,0 2.1217,-1.7444 2.1217,-2.4517 0,-7.0718 -2.9701,-12.2108 -10.042,-12.2108 z m -0.0473,4.7146 c 2.876,0 4.2431,2.2159 4.2431,5.7518 h -9.3347 c 0.4714,-4.1015 2.3573,-5.7518 5.0916,-5.7518 z m 19.9896,-10.372 h -1.1313 c -1.3201,0 -2.0273,0.4714 -2.1688,1.3201 l -0.5658,4.6676 h -1.3671 c -0.8487,0 -1.2257,0.6128 -1.2257,2.027 v 0.7073 c 0,1.4145 0.377,2.0273 1.2257,2.0273 h 1.3671 v 13.0122 c 0,5.3274 2.9231,7.2133 6.6005,7.2133 1.3671,0 4.1017,-0.1415 4.1017,-1.98 0,-0.3773 -0.4243,-2.9702 -1.273,-2.9702 -0.33,0 -0.8014,0.2356 -1.5557,0.2356 -1.273,0 -2.0273,-0.6599 -2.0273,-2.5929 v -12.918 h 2.9231 c 0.8957,0 1.2727,-0.6128 1.2727,-2.0273 v -0.7073 c 0,-1.4142 -0.377,-2.027 -1.2727,-2.027 h -2.9231 v -4.6676 c 0,-0.8487 -0.5658,-1.3201 -1.9803,-1.3201 z m 15.0395,-4.856 h -0.8957 c -1.7445,0 -2.4988,0.4714 -2.4988,1.3201 v 32.955 c 0,0.8484 0.7543,1.3201 2.4988,1.3201 h 0.8957 c 1.7444,0 2.4987,-0.4717 2.4987,-1.3201 v -15.9352 c 0.33,-0.6602 2.0274,-2.9231 4.5261,-2.9231 2.4988,0 3.6774,1.3201 3.6774,3.5359 v 15.3224 c 0,0.8484 0.7543,1.3201 2.4987,1.3201 h 0.8958 c 1.7444,0 2.4987,-0.4717 2.4987,-1.3201 v -16.124 c 0,-5.6574 -3.1589,-7.6377 -7.2606,-7.6377 -2.8758,0 -5.3275,1.5089 -6.8361,3.206 v -12.3993 c 0,-0.8487 -0.7543,-1.3201 -2.4987,-1.3201 z m 45.4487,2.4987 h -9.0048 c -1.1786,0 -1.6974,0.5188 -1.6974,1.6974 v 29.6073 c 0,1.1787 0.5188,1.6974 1.6974,1.6974 h 9.3348 c 7.9205,0 11.9749,-3.3001 11.9749,-9.5235 0,-4.5732 -4.0544,-7.3075 -6.4587,-7.7789 l -0.0473,-0.1888 c 2.8287,-1.0371 5.1389,-3.9602 5.1389,-7.1659 0,-4.9505 -3.3001,-8.345 -10.9378,-8.345 z m -0.5187,5.186 c 3.5359,0 5.1389,1.3672 5.1389,4.1018 0,2.3573 -1.9329,4.2431 -5.1389,4.2431 h -4.0544 v -8.3449 z m 0.6131,13.578 c 3.8186,0 5.8932,1.5559 5.8932,4.3846 0,2.876 -1.8388,4.6202 -5.1389,4.6202 h -5.4218 v -9.0048 z m 27.6273,-10.7493 c -2.4987,0 -4.0544,1.603 -5.2804,3.536 -0.2826,-1.1787 -0.424,-3.0643 -1.7914,-3.0643 -0.9899,0 -4.2903,0.33 -4.2903,1.3672 0,0.6599 0.5658,1.98 0.5658,6.3646 v 15.5582 c 0,0.8484 0.7543,1.3201 2.4988,1.3201 h 0.8957 c 1.7444,0 2.4987,-0.4717 2.4987,-1.3201 v -15.9352 c 0.33,-0.5658 1.8389,-2.5461 3.9603,-2.5461 1.1787,0 1.6971,0.4244 2.3573,0.4244 0.8014,0 1.2731,-2.5458 1.2731,-3.4416 0,-0.9431 -0.5658,-2.2632 -2.6876,-2.2632 z m 23.5259,0.2359 h -0.9431 c -1.6971,0 -2.4514,0.4714 -2.4514,1.3201 v 15.9352 c -0.9431,1.4145 -2.5931,2.9231 -4.5731,2.9231 -2.4517,0 -3.536,-1.3201 -3.536,-3.5359 v -15.3224 c 0,-0.8487 -0.7543,-1.3201 -2.4987,-1.3201 h -0.8958 c -1.7444,0 -2.4987,0.4714 -2.4987,1.3201 v 16.1237 c 0,5.0919 2.4514,7.6377 7.2133,7.6377 2.9231,0 5.5633,-1.603 7.1189,-3.536 0.2829,1.2731 0.4244,3.2531 1.8389,3.2531 0.9428,0 4.2429,-0.33 4.2429,-1.3672 0,-0.7072 -0.5655,-1.98 -0.5655,-6.506 v -15.6053 c 0,-0.8487 -0.7073,-1.3201 -2.4517,-1.3201 z m 35.4064,-0.2359 c -3.0645,0 -5.7988,1.7918 -7.3077,3.6774 -1.0843,-2.7343 -3.5359,-3.6774 -6.4117,-3.6774 -3.0645,0 -5.6103,1.7445 -7.0719,3.536 -0.2829,-1.1787 -0.4243,-3.0643 -1.7915,-3.0643 -0.9901,0 -4.2902,0.33 -4.2902,1.3672 0,0.6599 0.5655,1.98 0.5655,6.3646 v 15.5582 c 0,0.8484 0.7546,1.3201 2.4988,1.3201 h 0.8957 c 1.7444,0 2.4987,-0.4717 2.4987,-1.3201 v -15.9352 c 0.3303,-0.7073 1.9803,-2.9231 4.4317,-2.9231 2.4517,0 3.4419,1.3201 3.4419,3.5359 v 15.3224 c 0,0.8484 0.7543,1.3201 2.4987,1.3201 h 0.8957 c 1.7445,0 2.4988,-0.4717 2.4988,-1.3201 v -15.9826 c 0.6599,-0.9901 2.1214,-2.8757 4.4317,-2.8757 2.4043,0 3.4415,1.3201 3.4415,3.5359 v 15.3224 c 0,0.8484 0.7073,1.3201 2.4517,1.3201 h 0.9428 c 1.7444,0 2.4517,-0.4717 2.4517,-1.3201 v -16.124 c 0,-5.6574 -2.9702,-7.6377 -7.0719,-7.6377 z" />
    <path
       id="path28"
       style="fill:#f88c6f;fill-rule:evenodd"
       d="m 56.7914,221.508 c -2.245,0 -4.024,1.3297 -4.024,3.454 0,2.0381 1.6579,2.8154 2.9188,3.3679 0.9672,0.432 2.1243,0.9155 2.1243,2.1588 0,1.1574 -0.9845,2.0036 -2.5042,2.0036 -0.881,0 -1.6925,-0.2764 -2.2972,-0.6563 -0.1726,-0.1037 -0.3279,-0.2245 -0.449,-0.2245 -0.259,0 -0.3282,0.5698 -0.3282,0.8116 0,1.0882 1.5026,1.3819 2.7808,1.3819 3.0223,0 4.3696,-1.641 4.3696,-3.4543 0,-1.9863 -1.6237,-2.6598 -3.0745,-3.316 -1.0187,-0.4663 -1.9859,-0.9499 -1.9859,-2.1934 0,-1.3471 1.1571,-2.0209 2.4695,-2.0209 0.9329,0 1.5372,0.3456 1.8655,0.5355 0.1553,0.0865 0.2245,0.121 0.2934,0.121 0.2591,0 0.6738,-0.6738 0.6738,-0.9498 0,-0.5355 -1.4681,-1.0191 -2.8327,-1.0191 z m 8.7911,3.0569 c -3.2471,0 -4.5595,2.6597 -4.5595,5.5267 0,2.4179 1.2262,3.7134 3.575,3.7134 2.7632,0 4.4558,-1.9171 4.4558,-5.4924 0,-2.435 -1.209,-3.7477 -3.4713,-3.7477 z m -0.1899,1.2435 c 1.4678,0 2.1588,0.8119 2.1588,2.5387 0,2.7463 -1.019,4.2143 -2.8672,4.2143 -1.4678,0 -2.1759,-0.8118 -2.1759,-2.5217 0,-2.5906 0.9842,-4.2313 2.8843,-4.2313 z m 7.9101,-5.095 h -0.0692 c -0.449,0 -0.6908,0.1038 -0.7254,0.3802 0,0.0516 -1.1225,10.2415 -1.1225,11.0188 0,1.1744 0.5698,1.6926 1.5542,1.6926 0.311,0 0.9499,-0.1384 1.0364,-0.5701 0.0689,-0.3798 0.0689,-0.6216 0.0689,-0.6389 0,-0.1037 -0.0516,-0.121 -0.1035,-0.121 -0.1038,0 -0.2591,0.0864 -0.4663,0.0864 -0.2764,0 -0.6219,0 -0.6219,-0.7081 0,-0.5182 1.1055,-10.7597 1.1055,-10.7597 0,-0.2591 -0.1726,-0.3802 -0.6562,-0.3802 z M 84.097,232.475 c -0.1038,0 -0.2591,0.0864 -0.4663,0.0864 -0.2764,0 -0.6219,0 -0.6219,-0.7081 0,-0.5182 0.6738,-6.8394 0.6738,-6.8394 0,-0.2591 -0.1729,-0.3799 -0.6565,-0.3799 h -0.0689 c -0.449,0 -0.6908,0.1035 -0.7254,0.3799 l -0.4836,4.5941 c -0.7427,2.3661 -2.0035,2.9361 -2.7635,2.9361 -0.8807,0 -1.3124,-0.449 -1.3124,-1.33 0,-0.2418 0.6216,-6.2002 0.6216,-6.2002 0,-0.2591 -0.1726,-0.3799 -0.6562,-0.3799 h -0.0692 c -0.449,0 -0.6908,0.1035 -0.7254,0.3799 0,0 -0.6562,6.3212 -0.6562,6.5458 0,1.2781 0.6044,2.2453 2.2796,2.2453 1.0537,0 2.1589,-0.5009 3.0745,-1.8655 v 0.1729 c 0,1.1744 0.5698,1.6926 1.5542,1.6926 0.311,0 0.9499,-0.1384 1.0364,-0.5701 0.0689,-0.3798 0.0689,-0.6216 0.0689,-0.6389 0,-0.1037 -0.0516,-0.121 -0.1035,-0.121 z m 6.0967,-7.9101 c -3.3162,0 -4.5595,2.6424 -4.5595,5.6131 0,2.4353 1.1571,3.5059 3.3333,3.6097 -0.3283,0.8115 -0.4317,1.1052 -0.4317,1.1052 0,0.4317 1.036,0.2418 1.036,0.898 0,0.622 -0.6043,0.6908 -1.036,0.6908 -0.8119,0 -1.2782,-0.4317 -1.3473,-0.4317 -0.0865,0 -0.2073,0 -0.2073,0.5701 0,0.6216 1.2609,0.7081 1.6753,0.7081 0.8462,0 2.1589,-0.2073 2.1589,-1.7099 0,-0.9672 -0.9845,-1.0709 -1.347,-1.0709 h -0.0692 l 0.311,-0.7597 c 0.7253,-0.0346 1.9859,-0.1902 2.1069,-0.7773 0.0692,-0.3455 0.0862,-0.7427 0.0862,-0.7772 0,-0.19 -0.0343,-0.2072 -0.1034,-0.2072 -0.0692,0 -0.2073,0.0691 -0.4145,0.1553 -0.3801,0.1556 -1.0017,0.3801 -1.8997,0.3801 -1.6237,0 -2.3491,-0.76 -2.3491,-2.4871 0,-3.126 1.2781,-4.2659 2.8842,-4.2659 0.7946,0 1.2609,0.1727 1.5373,0.311 0.2072,0.1208 0.3282,0.2072 0.3798,0.2072 0.2937,0 0.6738,-0.6392 0.6738,-0.8637 0,-0.3626 -0.8464,-0.898 -2.418,-0.898 z m 6.9945,-2.7805 c -0.6908,0 -1.2089,0.3107 -1.5888,1.1917 -0.0864,0.2245 -0.0864,0.3452 0.1208,0.4317 l 0.1729,0.0691 c 0.2245,0.0862 0.3107,0.0516 0.4836,-0.2075 0.2418,-0.3798 0.4317,-0.5178 0.7254,-0.5178 0.8115,0 1.9859,0.7426 3.0568,0.7426 0.6908,0 1.1917,-0.3109 1.5716,-1.1746 0.121,-0.2588 0.1037,-0.3626 -0.1208,-0.449 l -0.138,-0.0516 c -0.2075,-0.0865 -0.3456,-0.0519 -0.5182,0.2072 -0.2418,0.3798 -0.449,0.5009 -0.76,0.5009 -0.8118,0 -1.9862,-0.7427 -3.0053,-0.7427 z m 1.3473,2.7805 c -3.247,0 -4.5595,2.6597 -4.5595,5.5267 0,2.4179 1.2263,3.7134 3.5751,3.7134 2.7632,0 4.4558,-1.9171 4.4558,-5.4924 0,-2.435 -1.209,-3.7477 -3.4714,-3.7477 z m -0.1899,1.2435 c 1.4678,0 2.1589,0.8119 2.1589,2.5387 0,2.7463 -1.0191,4.2143 -2.8673,4.2143 -1.4677,0 -2.1758,-0.8118 -2.1758,-2.5217 0,-2.5906 0.9842,-4.2313 2.8842,-4.2313 z m 8.4626,4.214 c 2.3488,0 4.6632,-0.7597 4.6632,-3.1603 0,-0.881 -0.7253,-2.2972 -2.9015,-2.2972 -3.3851,0 -4.7494,2.5733 -4.7494,5.6647 0,3.0918 2.1934,3.5754 3.903,3.5754 0.7427,0 2.677,-0.2937 2.8326,-1.1055 0.0689,-0.3626 0.0862,-0.7254 0.0862,-0.7773 0,-0.2072 -0.0519,-0.2072 -0.1207,-0.2072 -0.2418,0 -1.1228,0.8464 -2.6771,0.8464 -1.5199,0 -2.5217,-0.57 -2.5217,-2.4871 v -0.1726 c 0.3629,0.0691 0.8464,0.1207 1.4854,0.1207 z m 1.6064,-4.214 c 0.9842,0 1.5542,0.5528 1.5542,1.1917 0,1.779 -2.8324,1.779 -3.3333,1.779 h -1.2262 c 0.2245,-1.6063 1.0017,-2.9707 3.0053,-2.9707 z m 7.9443,-1.2435 c -1.7098,0 -3.1087,0.9845 -3.1087,2.4698 0,0.9845 0.6046,1.6234 1.9171,2.3661 0.898,0.5009 1.8309,0.898 1.8309,1.7617 0,0.7597 -0.7254,1.3989 -1.8828,1.3989 -0.8462,0 -1.4508,-0.3455 -1.7788,-0.5527 -0.121,-0.0692 -0.2072,-0.1208 -0.259,-0.1208 -0.1384,0 -0.449,0.6044 -0.449,0.898 0,0.3626 0.7772,1.0191 2.4179,1.0191 2.245,0 3.4367,-1.2263 3.4367,-2.6944 0,-1.0536 -0.6216,-1.7617 -2.1415,-2.5905 -1.0018,-0.5355 -1.5716,-0.8465 -1.5716,-1.5546 0,-0.7081 0.6044,-1.1571 1.6061,-1.1571 0.6563,0 1.0537,0.19 1.3301,0.3283 0.0861,0.0516 0.1899,0.0862 0.2417,0.0862 0.19,0 0.5871,-0.5528 0.5871,-0.8635 0,-0.5527 -1.3297,-0.7945 -2.1762,-0.7945 z m 11.0362,5.4575 c 2.3488,0 4.6632,-0.7597 4.6632,-3.1603 0,-0.881 -0.7253,-2.2972 -2.9015,-2.2972 -3.3851,0 -4.7494,2.5733 -4.7494,5.6647 0,3.0918 2.1934,3.5754 3.903,3.5754 0.7427,0 2.677,-0.2937 2.8326,-1.1055 0.0689,-0.3626 0.0862,-0.7254 0.0862,-0.7773 0,-0.2072 -0.0519,-0.2072 -0.1207,-0.2072 -0.2418,0 -1.1228,0.8464 -2.6771,0.8464 -1.5199,0 -2.5217,-0.57 -2.5217,-2.4871 v -0.1726 c 0.3629,0.0691 0.8464,0.1207 1.4854,0.1207 z m 1.6064,-4.214 c 0.9842,0 1.5542,0.5528 1.5542,1.1917 0,1.779 -2.8324,1.779 -3.3333,1.779 h -1.2262 c 0.2245,-1.6063 1.0017,-2.9707 3.0053,-2.9707 z m 17.6853,6.6666 c -0.1037,0 -0.2591,0.0864 -0.4663,0.0864 -0.2764,0 -0.6219,0 -0.6219,-0.7081 0,-0.3628 0.5009,-4.7494 0.5009,-5.0431 0,-1.2781 -0.6044,-2.2453 -2.2796,-2.2453 -1.071,0 -2.1762,0.57 -2.9535,1.8652 -0.121,-1.088 -0.7599,-1.8652 -2.2626,-1.8652 -1.036,0 -2.1243,0.5182 -2.8842,1.7444 v -0.3282 c 0,-0.4836 -0.1035,-1.1571 -0.449,-1.1571 -0.1208,0 -0.9672,0.0173 -0.9672,0.3971 0,0.1038 0.0173,0.1729 0.0173,0.5873 0,0.8119 -0.76,7.5646 -0.76,7.5646 0,0.2075 0.1902,0.3628 0.6565,0.3628 h 0.0689 c 0.449,0 0.6908,-0.1383 0.7254,-0.3801 l 0.5182,-4.9567 c 0.7599,-2.0551 1.8479,-2.5733 2.556,-2.5733 0.881,0 1.3127,0.449 1.3127,1.3298 0,0.2763 -0.639,6.2175 -0.639,6.2175 0,0.2075 0.19,0.3628 0.6563,0.3628 h 0.0691 c 0.449,0 0.7081,-0.1383 0.7254,-0.3801 l 0.5179,-4.9221 c 0.76,-2.0724 1.8655,-2.6079 2.5736,-2.6079 0.8807,0 1.3124,0.449 1.3124,1.3298 0,0.3282 -0.4836,4.3869 -0.4836,4.9569 0,1.1744 0.5701,1.6926 1.5546,1.6926 0.3106,0 0.9498,-0.1384 1.036,-0.5701 0.0692,-0.3798 0.0692,-0.6216 0.0692,-0.6389 0,-0.1037 -0.0519,-0.121 -0.1035,-0.121 z m 10.3626,-7.9101 c -3.2471,0 -4.5595,2.6597 -4.5595,5.5267 0,2.4179 1.2263,3.7134 3.5751,3.7134 2.7632,0 4.4557,-1.9171 4.4557,-5.4924 0,-2.435 -1.2089,-3.7477 -3.4713,-3.7477 z m -0.1899,1.2435 c 1.4678,0 2.1589,0.8119 2.1589,2.5387 0,2.7463 -1.0191,4.2143 -2.8673,4.2143 -1.4677,0 -2.1758,-0.8118 -2.1758,-2.5217 0,-2.5906 0.9841,-4.2313 2.8842,-4.2313 z m 10.1897,-1.2435 c -0.898,0 -1.7617,0.6562 -2.2969,1.7444 0.0173,-0.2072 0.0343,-0.4144 0.0343,-0.6219 0,-0.4663 -0.1035,-0.8634 -0.4663,-0.8634 -0.1208,0 -0.9672,0.0173 -0.9672,0.3971 0,0.1556 0.0173,0.2764 0.0173,0.5873 0,0.4145 -0.0689,1.1744 -0.1035,1.4508 l -0.6562,6.1138 c 0,0.2075 0.1899,0.3628 0.6562,0.3628 h 0.0692 c 0.449,0 0.6908,-0.1383 0.7251,-0.3801 0,0 0.2591,-2.4177 0.4836,-4.6284 0.4666,-1.7099 1.2954,-2.7289 2.1935,-2.7289 0.449,0 0.5354,0.1899 0.6737,0.1899 0.2073,0 0.5006,-0.5352 0.5006,-0.9672 0,-0.5352 -0.5178,-0.6562 -0.8634,-0.6562 z m 9.0156,0.0691 h -0.1037 c -0.4836,0 -0.6044,0.3626 -0.7773,0.8635 -0.3971,-0.3626 -1.1744,-0.9326 -2.2796,-0.9326 -2.6252,0 -4.3178,2.2972 -4.3178,5.5094 0,2.9188 1.8134,3.6269 2.9707,3.6269 1.0361,0 2.0552,-0.5181 2.7806,-1.8652 -0.2418,3.0915 -1.1226,4.2832 -2.7978,4.2832 -1.7964,0 -2.5217,-0.9326 -2.729,-0.9326 -0.0864,0 -0.2418,0.1034 -0.2418,0.9499 0,0.5181 1.209,1.2262 2.9708,1.2262 2.4695,0 3.7822,-1.2435 4.2139,-5.3713 l 0.7427,-6.9948 c 0,-0.2245 -0.0864,-0.3626 -0.4317,-0.3626 z m -1.2781,2.7287 -0.2245,2.1245 c -0.7254,2.3142 -1.8998,2.9532 -2.6771,2.9532 -0.9845,0 -1.796,-0.5871 -1.796,-2.4696 0,-2.0727 0.587,-4.1451 2.9531,-4.1451 0.8983,0 1.5372,0.4145 1.8828,0.6735 -0.0519,0.2764 -0.1038,0.5528 -0.1383,0.8635 z m 11.3298,5.1123 c -0.1035,0 -0.2591,0.0864 -0.4663,0.0864 -0.2764,0 -0.6217,0 -0.6217,-0.7081 0,-0.4663 0.6908,-6.8567 0.6908,-6.8567 0,-0.2245 -0.0864,-0.3626 -0.4317,-0.3626 h -0.1037 c -0.4836,0 -0.6044,0.3626 -0.7773,0.8635 -0.3798,-0.3626 -1.1225,-0.9326 -2.1935,-0.9326 -2.5732,0 -4.2312,2.2972 -4.2312,5.5094 0,3.0053 1.7617,3.7307 2.8842,3.7307 1.0018,0 1.9863,-0.5182 2.6944,-1.8655 v 0.1729 c 0,1.1744 0.5697,1.6926 1.5542,1.6926 0.311,0 0.9499,-0.1384 1.0363,-0.5701 0.0692,-0.3798 0.0692,-0.6216 0.0692,-0.6389 0,-0.1037 -0.0519,-0.121 -0.1037,-0.121 z m -2.107,-5.1123 c 0,0 -0.1211,1.1228 -0.2245,2.2626 -0.7081,2.2796 -1.8307,2.9188 -2.5906,2.9188 -0.9326,0 -1.7099,-0.6046 -1.7099,-2.5733 0,-2.0727 0.5698,-4.1451 2.867,-4.1451 0.8634,0 1.468,0.4145 1.796,0.6735 -0.0516,0.2764 -0.1035,0.5528 -0.138,0.8635 z m 11.4162,5.1123 c -0.1037,0 -0.2591,0.0864 -0.4663,0.0864 -0.2764,0 -0.6219,0 -0.6219,-0.7081 0,-0.3628 0.5009,-4.7494 0.5009,-5.0431 0,-1.2781 -0.6044,-2.2453 -2.2796,-2.2453 -1.0537,0 -2.1246,0.4663 -3.0572,1.7444 v -0.3282 c 0,-0.6044 -0.1035,-1.1571 -0.449,-1.1571 -0.1208,0 -0.9672,0.0173 -0.9672,0.3971 0,0.1038 0.0173,0.1729 0.0173,0.5873 0,0.8119 -0.76,7.5646 -0.76,7.5646 0,0.2075 0.1902,0.3628 0.6565,0.3628 h 0.0689 c 0.449,0 0.6908,-0.1383 0.7254,-0.3801 0,0 0.2764,-2.5214 0.5009,-4.7495 0.7427,-2.2277 1.9862,-2.7805 2.7462,-2.7805 0.8807,0 1.3124,0.449 1.3124,1.3298 0,0.3282 -0.4836,4.3869 -0.4836,4.9569 0,1.1744 0.5701,1.6926 1.5546,1.6926 0.3109,0 0.9498,-0.1384 1.036,-0.5701 0.0692,-0.3798 0.0692,-0.6216 0.0692,-0.6389 0,-0.1037 -0.0519,-0.121 -0.1035,-0.121 z m 3.9722,-11.7616 h -0.2072 c -0.449,0 -0.6908,0.1038 -0.7254,0.3802 l -0.1035,1.0187 c 0,0.311 0.2761,0.3802 0.7251,0.3802 h 0.2075 c 0.4836,0 0.6563,-0.1556 0.6563,-0.3802 l 0.1034,-1.0187 c 0,-0.2764 -0.1726,-0.3802 -0.6562,-0.3802 z m -0.4836,3.9206 h -0.0692 c -0.449,0 -0.6908,0.1035 -0.7251,0.3799 -0.0345,0 -0.7083,6.442 -0.7083,7.1501 0,1.1401 0.57,1.641 1.5372,1.641 0.311,0 0.9499,-0.1384 1.0363,-0.5701 0.0689,-0.3798 0.0689,-0.6216 0.0689,-0.6389 0,-0.1037 -0.0516,-0.121 -0.1034,-0.121 -0.1038,0 -0.2591,0.0864 -0.4663,0.0864 -0.2764,0 -0.6047,0 -0.6047,-0.7081 0,-0.5182 0.6908,-6.8394 0.6908,-6.8394 0,-0.2591 -0.1726,-0.3799 -0.6562,-0.3799 z m 9.8445,0.0346 h -6.0619 c -0.4147,0 -0.432,0.5871 -0.432,0.777 0,0.2764 0.0518,0.4663 0.2936,0.4663 h 4.4215 l -5.7512,6.7184 c -0.0692,0.0692 -0.0865,0.1902 -0.0865,0.2764 0,0.3455 0.1727,0.7945 0.2937,0.7945 h 6.3902 c 0.4144,0 0.4317,-0.5873 0.4317,-0.7772 0,-0.2764 -0.0516,-0.4663 -0.2934,-0.4663 h -4.7497 l 5.7339,-6.7184 c 0.0346,-0.0346 0.0691,-0.1208 0.0691,-0.2418 0,-0.328 -0.1034,-0.8289 -0.259,-0.8289 z m 9.4127,7.8064 c -0.1035,0 -0.2591,0.0864 -0.4663,0.0864 -0.2764,0 -0.6217,0 -0.6217,-0.7081 0,-0.4663 0.6908,-6.8567 0.6908,-6.8567 0,-0.2245 -0.0864,-0.3626 -0.4317,-0.3626 h -0.1037 c -0.4836,0 -0.6044,0.3626 -0.7773,0.8635 -0.3798,-0.3626 -1.1225,-0.9326 -2.1934,-0.9326 -2.5733,0 -4.2313,2.2972 -4.2313,5.5094 0,3.0053 1.7617,3.7307 2.8842,3.7307 1.0018,0 1.9863,-0.5182 2.6944,-1.8655 v 0.1729 c 0,1.1744 0.5697,1.6926 1.5542,1.6926 0.311,0 0.9499,-0.1384 1.0364,-0.5701 0.0691,-0.3798 0.0691,-0.6216 0.0691,-0.6389 0,-0.1037 -0.0518,-0.121 -0.1037,-0.121 z m -2.107,-5.1123 c 0,0 -0.1211,1.1228 -0.2245,2.2626 -0.7081,2.2796 -1.8306,2.9188 -2.5906,2.9188 -0.9326,0 -1.7099,-0.6046 -1.7099,-2.5733 0,-2.0727 0.5698,-4.1451 2.867,-4.1451 0.8634,0 1.4681,0.4145 1.796,0.6735 -0.0516,0.2764 -0.1034,0.5528 -0.138,0.8635 z m 8.0657,-2.7978 c -3.3163,0 -4.5595,2.6424 -4.5595,5.6131 0,2.4353 1.1571,3.5059 3.3332,3.6097 -0.3282,0.8115 -0.4317,1.1052 -0.4317,1.1052 0,0.4317 1.0361,0.2418 1.0361,0.898 0,0.622 -0.6044,0.6908 -1.0361,0.6908 -0.8118,0 -1.2781,-0.4317 -1.3473,-0.4317 -0.0865,0 -0.2072,0 -0.2072,0.5701 0,0.6216 1.2608,0.7081 1.6753,0.7081 0.8461,0 2.1588,-0.2073 2.1588,-1.7099 0,-0.9672 -0.9844,-1.0709 -1.347,-1.0709 h -0.0692 l 0.311,-0.7597 c 0.7254,-0.0346 1.986,-0.1902 2.107,-0.7773 0.0692,-0.3455 0.0862,-0.7427 0.0862,-0.7772 0,-0.19 -0.0343,-0.2072 -0.1035,-0.2072 -0.0692,0 -0.2072,0.0691 -0.4144,0.1553 -0.3802,0.1556 -1.0018,0.3801 -1.8998,0.3801 -1.6237,0 -2.3491,-0.76 -2.3491,-2.4871 0,-3.126 1.2782,-4.2659 2.8843,-4.2659 0.7945,0 1.2608,0.1727 1.5372,0.311 0.2072,0.1208 0.3283,0.2072 0.3798,0.2072 0.2937,0 0.6738,-0.6392 0.6738,-0.8637 0,-0.3626 -0.8464,-0.898 -2.4179,-0.898 z m 5.1466,-1.1571 0.1726,0.0691 c 0.2245,0.0862 0.311,0.0516 0.4836,-0.2075 0.2418,-0.3798 0.432,-0.5178 0.7254,-0.5178 0.8118,0 1.9862,0.7426 3.0571,0.7426 0.6908,0 1.1917,-0.3109 1.5716,-1.1746 0.121,-0.2588 0.1037,-0.3626 -0.1208,-0.449 l -0.1383,-0.0516 c -0.2072,-0.0865 -0.3453,-0.0519 -0.5182,0.2072 -0.2418,0.3798 -0.449,0.5009 -0.76,0.5009 -0.8115,0 -1.9859,-0.7427 -3.005,-0.7427 -0.6908,0 -1.2089,0.3107 -1.5888,1.1917 -0.0864,0.2245 -0.0864,0.3452 0.1208,0.4317 z m 6.6838,9.0672 c -0.1035,0 -0.2591,0.0864 -0.4663,0.0864 -0.2764,0 -0.6217,0 -0.6217,-0.7081 0,-0.4663 0.6908,-6.8567 0.6908,-6.8567 0,-0.2245 -0.0864,-0.3626 -0.4317,-0.3626 h -0.1037 c -0.4836,0 -0.6044,0.3626 -0.7773,0.8635 -0.3798,-0.3626 -1.1225,-0.9326 -2.1934,-0.9326 -2.5733,0 -4.2313,2.2972 -4.2313,5.5094 0,3.0053 1.7617,3.7307 2.8843,3.7307 1.0017,0 1.9862,-0.5182 2.6943,-1.8655 v 0.1729 c 0,1.1744 0.5697,1.6926 1.5542,1.6926 0.311,0 0.9499,-0.1384 1.0364,-0.5701 0.0691,-0.3798 0.0691,-0.6216 0.0691,-0.6389 0,-0.1037 -0.0518,-0.121 -0.1037,-0.121 z m -2.107,-5.1123 c 0,0 -0.121,1.1228 -0.2245,2.2626 -0.7081,2.2796 -1.8306,2.9188 -2.5906,2.9188 -0.9326,0 -1.7099,-0.6046 -1.7099,-2.5733 0,-2.0727 0.5698,-4.1451 2.867,-4.1451 0.8634,0 1.4681,0.4145 1.796,0.6735 -0.0516,0.2764 -0.1034,0.5528 -0.138,0.8635 z m 8.0311,-2.7978 c -3.2471,0 -4.5595,2.6597 -4.5595,5.5267 0,2.4179 1.2262,3.7134 3.575,3.7134 2.7632,0 4.4558,-1.9171 4.4558,-5.4924 0,-2.435 -1.209,-3.7477 -3.4713,-3.7477 z m -0.1899,1.2435 c 1.4678,0 2.1589,0.8119 2.1589,2.5387 0,2.7463 -1.0191,4.2143 -2.8673,4.2143 -1.4678,0 -2.1759,-0.8118 -2.1759,-2.5217 0,-2.5906 0.9842,-4.2313 2.8843,-4.2313 z" />
  </g>
</svg>
