<?xml version="1.0" encoding="UTF-8" standalone="no"?>
<svg
   xmlns:dc="http://purl.org/dc/elements/1.1/"
   xmlns:cc="http://creativecommons.org/ns#"
   xmlns:rdf="http://www.w3.org/1999/02/22-rdf-syntax-ns#"
   xmlns:svg="http://www.w3.org/2000/svg"
   xmlns="http://www.w3.org/2000/svg"
   viewBox="0 0 296.0473 263.38681"
   id="svg31"
   height="263.38681"
   width="296.0473"
   version="1.1">
  <metadata
     id="metadata37">
    <rdf:RDF>
      <cc:Work
         rdf:about="">
        <dc:format>image/svg+xml</dc:format>
        <dc:type
           rdf:resource="http://purl.org/dc/dcmitype/StillImage" />
      </cc:Work>
    </rdf:RDF>
  </metadata>
  <defs
     id="defs35" />
  <g
     id="Layer1000">
    <path
       id="path2"
       style="fill:#38cbc8;fill-rule:evenodd;stroke:#38cbc8;stroke-width:0.21600001;stroke-linecap:butt;stroke-linejoin:miter;stroke-dasharray:none"
       d="M -1e-4,0 H 296.0474 V 263.3868 H -1e-4 Z" />
    <g
       id="Layer1001">
      <g
         id="Layer1002">
        <path
           id="path4"
           style="fill:#ffffff;fill-rule:evenodd"
           d="m 126.0232,115.9284 c -3.7258,-0.2861 -7.8384,-4.4834 -5.1727,-8.2715 2.3484,-3.3372 6.6415,-0.4471 7.44,2.5162 0.3825,1.4183 0.319,3.0573 -0.183,4.4457 -0.3855,1.0668 1.3145,1.5268 1.697,0.4678 0.9565,-2.6431 0.5295,-5.8791 -1.1498,-8.1257 -1.9203,-2.568 -6.0566,-3.4299 -8.546,-1.115 -2.1435,1.9934 -2.1032,5.6887 -0.7405,8.1128 1.2895,2.2936 4.1162,3.5349 6.655,3.7295 1.1291,0.0866 1.1236,-1.6738 0,-1.7598 z" />
        <path
           id="path6"
           style="fill:#ffffff;fill-rule:evenodd"
           d="m 137.1561,117.7992 c -2.4564,-2.2106 -5.7528,-4.6133 -9.148,-2.8718 -2.8072,1.4396 -3.58,4.478 -3.0896,7.3937 1.6683,9.9288 15.3065,11.6466 23.2998,12.5762 1.123,0.1305 1.1138,-1.6305 0,-1.7598 -6.3543,-0.7393 -12.6414,-1.6391 -17.916,-5.5503 -2.6041,-1.9307 -5.1362,-5.9786 -3.2745,-9.3219 2.1704,-3.8985 6.4245,-1.4347 8.8839,0.7789 0.84,0.7558 2.0886,-0.4849 1.2444,-1.245 z" />
        <path
           id="path8"
           style="fill:#ffffff;fill-rule:evenodd"
           d="m 142.5698,134.266 c 3.0987,6.2957 6.7202,12.4688 11.566,17.5933 2.2753,2.4064 7.4944,8.244 11.4721,6.6727 5.751,-2.2716 -5.1916,-11.1476 -6.9893,-12.6213 -0.8692,-0.7125 -2.1215,0.5252 -1.2444,1.2444 1.2835,1.0522 2.526,2.1642 3.7143,3.3232 1.0388,1.0132 2.0837,2.0557 2.9523,3.2207 0.2251,0.302 1.1322,1.256 1.1096,1.7025 -0.0677,1.3005 -2.7163,0.8205 -3.8618,0.3227 -3.8204,-1.6598 -7.3943,-6.5507 -9.7867,-9.7897 -2.8902,-3.9143 -5.2673,-8.1989 -7.4126,-12.5567 -0.5002,-1.0162 -2.0185,-0.1257 -1.5195,0.8882 z" />
        <path
           id="path10"
           style="fill:#ffffff;fill-rule:evenodd"
           d="m 120.7785,105.4305 c -8.183,-8.2026 -16.6076,-16.9492 -21.518,-27.5911 -3.9467,-8.5527 -4.7604,-18.1027 2.1551,-25.5367 4.7591,-5.1166 12.14,-4.2681 11.9942,3.297 -0.022,1.1328 1.7379,1.1328 1.7598,0 0.316,-16.3642 -14.9411,-8.3727 -19.2635,1.8593 -7.6938,18.2125 12.1401,37.7011 23.628,49.2158 0.8009,0.8034 2.0459,-0.441 1.2444,-1.2443 z" />
        <path
           id="path12"
           style="fill:#ffffff;fill-rule:evenodd"
           d="m 113.7422,61.1726 c 1.5098,0 1.5122,-2.3466 0,-2.3466 -1.5103,0 -1.5127,2.3466 0,2.3466 z" />
        <path
           id="path14"
           style="fill:#ffffff;fill-rule:evenodd"
           d="m 154.7696,144.773 c 1.5097,0 1.5122,-2.3466 0,-2.3466 -1.5097,0 -1.5128,2.3466 0,2.3466 z" />
      </g>
      <path
         id="path17"
         style="fill:#f88c6f;fill-rule:evenodd"
         d="M 136.0575,117.0965 C 123.9279,99.6423 117.5059,76.9988 125.2442,56.3598 c 7.5676,-20.1822 38.9741,-41.8527 55.1212,-17.777 8.2788,12.3426 5.4045,29.9115 -0.7698,42.5084 -8.7692,17.8929 -25.9868,28.9264 -44.2243,35.4551 -1.059,0.3794 -0.6021,2.0807 0.4678,1.697 20.7751,-7.437 40.1893,-20.8007 47.877,-42.373 5.1166,-14.3573 5.8156,-34.0295 -7.4992,-44.3506 -16.6839,-12.9318 -38.9876,0.2983 -48.4302,15.6316 -13.7504,22.3288 -7.3992,50.4719 6.7507,70.834 0.6423,0.9235 2.1685,0.0445 1.5201,-0.8888 z" />
      <path
         id="path19"
         style="fill:#f88c6f;fill-rule:evenodd"
         d="m 136.4534,117.1612 c -5.2349,-18.074 -7.5761,-37.8084 1.797,-54.9833 8.0812,-14.807 22.139,-25.7484 39.7403,-24.0538 25.7648,2.4808 26.0118,36.2304 12.5744,52.0487 -13.1606,15.4925 -35.1044,24.557 -54.9602,26.3424 -1.1187,0.1007 -1.1297,1.8611 0,1.7598 21.9755,-1.9757 49.4312,-13.1764 60.7606,-33.3976 7.967,-14.2188 7.4199,-39.9678 -10.4321,-46.8174 -16.8309,-6.4573 -33.8441,2.3961 -44.1304,15.5719 -14.658,18.7749 -13.3575,42.2083 -7.0466,63.9972 0.3148,1.0857 2.0136,0.624 1.697,-0.4679 z" />
      <path
         id="path21"
         style="fill:#f88c6f;fill-rule:evenodd"
         d="m 135.0754,118.6575 c 8.4923,14.0627 22.7753,28.3829 40.1106,30.1079 7.3229,0.729 16.9418,-2.7047 19.3757,-10.3015 4.0235,-12.5597 -10.0227,-21.6931 -20.3938,-24.0684 -11.9003,-2.7254 -26.7572,0.5636 -38.5667,2.9694 -1.1089,0.2257 -0.6392,1.9227 0.4685,1.697 8.7394,-1.7805 17.7141,-2.9413 26.6224,-3.4001 11.3922,-0.5874 30.8509,3.757 30.6551,18.5499 -0.1629,12.3163 -14.5903,14.1536 -23.6048,11.483 -14.5373,-4.3077 -25.4921,-15.2491 -33.1469,-27.9253 -0.5849,-0.9687 -2.1075,-0.0848 -1.5201,0.8881 z" />
      <path
         id="path23"
         style="fill:#f88c6f;fill-rule:evenodd"
         d="m 142.9834,129.0084 c 13.3886,9.4915 31.8091,14.0024 47.6823,7.8598 7.0082,-2.7114 12.686,-8.6875 10.8566,-16.6412 -2.2069,-9.6 -12.7305,-14.261 -21.5741,-15.2662 -15.9891,-1.8172 -30.1025,6.0883 -44.2006,12.2608 -1.0351,0.4532 -0.1403,1.9703 0.8882,1.5201 9.2011,-4.029 18.0527,-8.887 27.9656,-11.0256 10.9152,-2.3546 27.4008,-2.0465 33.6892,9.1932 5.6875,10.1661 -3.3361,17.4213 -12.6134,19.6008 -14.7246,3.4593 -29.6876,-0.4306 -41.8057,-9.0218 -0.926,-0.6563 -1.8056,0.8693 -0.8881,1.5201 z" />
      <path
         id="path25"
         style="fill:#ffffff;fill-rule:evenodd"
         d="m 52.7892,177.0523 h -9.0048 c -1.1787,0 -1.6974,0.5184 -1.6974,1.6971 v 29.6075 c 0,1.1784 0.5187,1.6971 1.6974,1.6971 h 9.3347 c 7.9203,0 11.975,-3.3 11.975,-9.5232 0,-4.5732 -4.0547,-7.3077 -6.459,-7.7791 l -0.0471,-0.1886 c 2.8287,-1.0371 5.1389,-3.9602 5.1389,-7.1662 0,-4.9502 -3.3003,-8.3446 -10.9377,-8.3446 z m -0.5188,5.1859 c 3.536,0 5.139,1.3672 5.139,4.1018 0,2.357 -1.933,4.2429 -5.139,4.2429 H 48.216 v -8.3447 z m 0.6129,13.578 c 3.8188,0 5.8932,1.5556 5.8932,4.3843 0,2.8761 -1.8385,4.6205 -5.1389,4.6205 H 48.216 v -9.0048 z m 26.9201,-10.7493 c -6.8831,0 -11.2678,3.8659 -11.2678,12.8237 0,7.9203 3.7718,12.4934 12.0221,12.4934 3.4418,0 8.4863,-1.3201 8.4863,-3.253 0,-0.8014 -1.273,-3.1116 -2.1688,-3.1116 -0.5658,0 -2.7343,1.65 -6.1288,1.65 -3.6303,0 -5.7517,-1.603 -6.082,-5.9403 h 13.0595 c 0.6129,0 2.1215,-1.7444 2.1215,-2.4514 0,-7.0718 -2.9702,-12.2108 -10.042,-12.2108 z m -0.0471,4.7146 c 2.8757,0 4.2432,2.2159 4.2432,5.7518 h -9.3351 c 0.4717,-4.1017 2.3573,-5.7518 5.0919,-5.7518 z m 19.9896,-10.372 h -1.1313 c -1.3201,0 -2.0273,0.4714 -2.1688,1.3201 l -0.5658,4.6673 h -1.3671 c -0.8487,0 -1.2257,0.6128 -1.2257,2.0273 v 0.7073 c 0,1.4142 0.377,2.027 1.2257,2.027 H 95.88 v 13.0122 c 0,5.3274 2.9231,7.2133 6.6005,7.2133 1.3672,0 4.1015,-0.1414 4.1015,-1.98 0,-0.3773 -0.4241,-2.9701 -1.2728,-2.9701 -0.3299,0 -0.8016,0.2355 -1.5559,0.2355 -1.2728,0 -2.0271,-0.6599 -2.0271,-2.5928 v -12.9181 h 2.9228 c 0.8958,0 1.2731,-0.6128 1.2731,-2.027 v -0.7073 c 0,-1.4145 -0.3773,-2.0273 -1.2731,-2.0273 h -2.9228 v -4.6673 c 0,-0.8487 -0.5658,-1.3201 -1.9803,-1.3201 z m 15.0395,-4.856 h -0.8957 c -1.7445,0 -2.4988,0.4714 -2.4988,1.3201 v 32.9547 c 0,0.8485 0.7543,1.3201 2.4988,1.3201 h 0.8957 c 1.7445,0 2.4988,-0.4716 2.4988,-1.3201 v -15.9352 c 0.3299,-0.6602 2.0273,-2.9231 4.5258,-2.9231 2.4987,0 3.6774,1.3201 3.6774,3.536 v 15.3223 c 0,0.8485 0.7543,1.3201 2.4987,1.3201 h 0.8957 c 1.7445,0 2.4988,-0.4716 2.4988,-1.3201 v -16.1237 c 0,-5.6577 -3.1587,-7.6377 -7.2604,-7.6377 -2.8757,0 -5.3274,1.5086 -6.836,3.206 v -12.3993 c 0,-0.8487 -0.7543,-1.3201 -2.4988,-1.3201 z m 45.4485,2.4988 h -9.0048 c -1.1787,0 -1.6974,0.5184 -1.6974,1.6971 v 29.6075 c 0,1.1784 0.5187,1.6971 1.6974,1.6971 h 9.3347 c 7.9203,0 11.975,-3.3 11.975,-9.5232 0,-4.5732 -4.0547,-7.3077 -6.459,-7.7791 l -0.0471,-0.1886 c 2.8287,-1.0371 5.1389,-3.9602 5.1389,-7.1662 0,-4.9502 -3.3003,-8.3446 -10.9377,-8.3446 z m -0.5188,5.1859 c 3.536,0 5.139,1.3672 5.139,4.1018 0,2.357 -1.933,4.2429 -5.139,4.2429 h -4.0544 v -8.3447 z m 0.6129,13.578 c 3.8188,0 5.8932,1.5556 5.8932,4.3843 0,2.8761 -1.8385,4.6205 -5.1389,4.6205 h -5.4216 v -9.0048 z m 27.6273,-10.7493 c -2.4987,0 -4.0544,1.603 -5.2804,3.536 -0.2829,-1.1787 -0.4243,-3.0646 -1.7915,-3.0646 -0.9901,0 -4.2902,0.33 -4.2902,1.3672 0,0.6602 0.5658,1.9803 0.5658,6.3646 v 15.5582 c 0,0.8485 0.7543,1.3201 2.4987,1.3201 h 0.8958 c 1.7444,0 2.4987,-0.4716 2.4987,-1.3201 v -15.9352 c 0.33,-0.5658 1.8386,-2.5458 3.9603,-2.5458 1.1786,0 1.6971,0.4244 2.3573,0.4244 0.8013,0 1.2727,-2.5461 1.2727,-3.4419 0,-0.9428 -0.5658,-2.2629 -2.6872,-2.2629 z m 23.5256,0.2359 h -0.9428 c -1.6971,0 -2.4517,0.4714 -2.4517,1.3198 v 15.9352 c -0.9428,1.4145 -2.5929,2.9231 -4.5729,2.9231 -2.4517,0 -3.5359,-1.3201 -3.5359,-3.5359 v -15.3224 c 0,-0.8484 -0.7543,-1.3198 -2.4987,-1.3198 h -0.8958 c -1.7444,0 -2.4987,0.4714 -2.4987,1.3198 v 16.124 c 0,5.0916 2.4514,7.6374 7.2133,7.6374 2.9228,0 5.563,-1.603 7.1189,-3.5359 0.2829,1.273 0.4244,3.253 1.8386,3.253 0.9431,0 4.2431,-0.33 4.2431,-1.3671 0,-0.7073 -0.5657,-1.98 -0.5657,-6.5061 v -15.6053 c 0,-0.8484 -0.7073,-1.3198 -2.4517,-1.3198 z m 35.4064,-0.2359 c -3.0643,0 -5.7988,1.7915 -7.3074,3.6774 -1.0843,-2.7346 -3.536,-3.6774 -6.4117,-3.6774 -3.0646,0 -5.6104,1.7445 -7.0719,3.536 -0.2829,-1.1787 -0.4243,-3.0646 -1.7915,-3.0646 -0.9901,0 -4.2902,0.33 -4.2902,1.3672 0,0.6602 0.5655,1.9803 0.5655,6.3646 v 15.5582 c 0,0.8485 0.7543,1.3201 2.4987,1.3201 h 0.8958 c 1.7444,0 2.4987,-0.4716 2.4987,-1.3201 v -15.9352 c 0.33,-0.7072 1.9803,-2.9231 4.4317,-2.9231 2.4517,0 3.4415,1.3201 3.4415,3.536 v 15.3223 c 0,0.8485 0.7546,1.3201 2.4988,1.3201 h 0.8957 c 1.7445,0 2.4988,-0.4716 2.4988,-1.3201 V 192.846 c 0.6602,-0.9901 2.1217,-2.876 4.4316,-2.876 2.4047,0 3.4419,1.3201 3.4419,3.536 v 15.3223 c 0,0.8485 0.7069,1.3201 2.4514,1.3201 h 0.9431 c 1.7441,0 2.4514,-0.4716 2.4514,-1.3201 v -16.1237 c 0,-5.6577 -2.9702,-7.6377 -7.0719,-7.6377 z" />
      <path
         id="path27"
         style="fill:#ffffff;fill-rule:evenodd"
         d="m 80.2776,221.3555 h -3.5059 c -0.3626,0 -0.5355,0.1553 -0.57,0.5182 l -1.1744,11.2257 c 0,0.2418 0.1383,0.3802 0.6565,0.3802 h 0.138 c 0.449,0 0.6908,-0.1384 0.7254,-0.3802 l 0.5009,-4.801 h 2.6767 c 0.8983,0 4.0933,-0.4317 4.0933,-4.0587 0,-2.4698 -2.1416,-2.8842 -3.5405,-2.8842 z m -0.1899,1.3127 c 0.9499,0 2.1415,0.328 2.1415,1.7788 0,2.1415 -1.6752,2.5387 -2.3487,2.5387 h -2.6944 l 0.449,-4.3175 z m 7.7026,7.0983 c 2.3487,0 4.6629,-0.76 4.6629,-3.1607 0,-0.8807 -0.7253,-2.2969 -2.9012,-2.2969 -3.3851,0 -4.7495,2.5733 -4.7495,5.6648 0,3.0914 2.1932,3.575 3.9031,3.575 0.7426,0 2.677,-0.2936 2.8323,-1.1055 0.0692,-0.3625 0.0865,-0.7254 0.0865,-0.777 0,-0.2075 -0.0519,-0.2075 -0.121,-0.2075 -0.2418,0 -1.1226,0.8465 -2.6768,0.8465 -1.5199,0 -2.5217,-0.5701 -2.5217,-2.4872 v -0.1726 c 0.3628,0.0692 0.8464,0.1211 1.4854,0.1211 z m 1.6061,-4.2143 c 0.9844,0 1.5545,0.5527 1.5545,1.1917 0,1.779 -2.8324,1.779 -3.3333,1.779 h -1.2262 c 0.2245,-1.6061 1.0017,-2.9707 3.005,-2.9707 z m 9.43,-1.2433 c -0.898,0 -1.7618,0.6562 -2.2972,1.7442 0.0173,-0.2072 0.0346,-0.4145 0.0346,-0.6217 0,-0.4663 -0.1035,-0.8634 -0.4663,-0.8634 -0.1208,0 -0.9672,0.017 -0.9672,0.3971 0,0.1554 0.0173,0.2764 0.0173,0.5871 0,0.4147 -0.0689,1.1744 -0.1035,1.4508 l -0.6565,6.1137 c 0,0.2075 0.1902,0.3629 0.6565,0.3629 h 0.0689 c 0.4493,0 0.6908,-0.1384 0.7254,-0.3802 0,0 0.2591,-2.4176 0.4836,-4.6284 0.4663,-1.7098 1.2954,-2.7286 2.1934,-2.7286 0.449,0 0.5355,0.1899 0.6735,0.1899 0.2072,0 0.5009,-0.5354 0.5009,-0.9672 0,-0.5354 -0.5182,-0.6562 -0.8634,-0.6562 z m 4.8356,0 c -1.7099,0 -3.1088,0.9842 -3.1088,2.4696 0,0.9844 0.6047,1.6234 1.9171,2.366 0.898,0.5009 1.8306,0.8981 1.8306,1.7618 0,0.7599 -0.7254,1.3989 -1.8825,1.3989 -0.8461,0 -1.4507,-0.3456 -1.7787,-0.5528 -0.121,-0.0692 -0.2072,-0.1207 -0.2591,-0.1207 -0.1383,0 -0.449,0.6043 -0.449,0.898 0,0.3625 0.777,1.019 2.418,1.019 2.245,0 3.4367,-1.2262 3.4367,-2.6943 0,-1.0536 -0.6217,-1.7617 -2.1416,-2.5906 -1.0018,-0.5355 -1.5715,-0.8464 -1.5715,-1.5545 0,-0.7081 0.6043,-1.1571 1.6061,-1.1571 0.6562,0 1.0533,0.1902 1.3297,0.3282 0.0865,0.0519 0.1899,0.0865 0.2418,0.0865 0.1899,0 0.5874,-0.5528 0.5874,-0.8637 0,-0.5525 -1.3301,-0.7943 -2.1762,-0.7943 z m 8.4453,0 c -3.2468,0 -4.5593,2.6595 -4.5593,5.5264 0,2.418 1.2263,3.7134 3.5751,3.7134 2.7632,0 4.4558,-1.917 4.4558,-5.4921 0,-2.4352 -1.209,-3.7477 -3.4716,-3.7477 z m -0.19,1.2433 c 1.4681,0 2.1589,0.8118 2.1589,2.539 0,2.7459 -1.0191,4.214 -2.867,4.214 -1.468,0 -2.1761,-0.8119 -2.1761,-2.5217 0,-2.5906 0.9845,-4.2313 2.8842,-4.2313 z m 13.402,6.6665 c -0.1035,0 -0.2591,0.0865 -0.4663,0.0865 -0.2764,0 -0.6217,0 -0.6217,-0.7081 0,-0.3629 0.5009,-4.7495 0.5009,-5.0431 0,-1.2779 -0.6046,-2.2451 -2.2799,-2.2451 -1.0534,0 -2.1243,0.4663 -3.0569,1.7442 v -0.328 c 0,-0.6046 -0.1034,-1.1571 -0.449,-1.1571 -0.1207,0 -0.9672,0.017 -0.9672,0.3971 0,0.1035 0.0173,0.1727 0.0173,0.5871 0,0.8118 -0.7599,7.5645 -0.7599,7.5645 0,0.2075 0.1899,0.3629 0.6565,0.3629 h 0.0688 c 0.449,0 0.6908,-0.1384 0.7254,-0.3802 0,0 0.2764,-2.5214 0.5009,-4.7491 0.7427,-2.2281 1.9862,-2.7808 2.7459,-2.7808 0.881,0 1.3128,0.449 1.3128,1.33 0,0.328 -0.4836,4.3866 -0.4836,4.9567 0,1.1744 0.57,1.6925 1.5542,1.6925 0.311,0 0.9499,-0.1383 1.0363,-0.57 0.0692,-0.3799 0.0692,-0.6217 0.0692,-0.639 0,-0.1037 -0.0519,-0.121 -0.1037,-0.121 z m 9.7234,0 c -0.1038,0 -0.2591,0.0865 -0.4663,0.0865 -0.2764,0 -0.622,0 -0.622,-0.7081 0,-0.4663 0.6908,-6.8565 0.6908,-6.8565 0,-0.2245 -0.0861,-0.3628 -0.4317,-0.3628 h -0.1034 c -0.4836,0 -0.6047,0.3628 -0.7773,0.8637 -0.3798,-0.3628 -1.1225,-0.9326 -2.1934,-0.9326 -2.5733,0 -4.2313,2.2969 -4.2313,5.5091 0,3.0053 1.7617,3.7307 2.8842,3.7307 1.0018,0 1.986,-0.5181 2.6944,-1.8655 v 0.173 c 0,1.1744 0.5697,1.6925 1.5542,1.6925 0.311,0 0.9499,-0.1383 1.0363,-0.57 0.0689,-0.3799 0.0689,-0.6217 0.0689,-0.639 0,-0.1037 -0.0518,-0.121 -0.1034,-0.121 z m -2.107,-5.112 c 0,0 -0.1211,1.1225 -0.2245,2.2623 -0.7081,2.2799 -1.8309,2.9189 -2.5906,2.9189 -0.9329,0 -1.7099,-0.6047 -1.7099,-2.5733 0,-2.0724 0.5698,-4.1451 2.867,-4.1451 0.8634,0 1.4678,0.4147 1.796,0.6735 -0.0519,0.2764 -0.1037,0.5527 -0.138,0.8637 z m 5.9235,-6.6492 h -0.0689 c -0.449,0 -0.6908,0.1034 -0.7253,0.3798 0,0.0519 -1.1228,10.2416 -1.1228,11.0189 0,1.1744 0.57,1.6925 1.5545,1.6925 0.3109,0 0.9499,-0.1383 1.0363,-0.57 0.0689,-0.3799 0.0689,-0.6217 0.0689,-0.639 0,-0.1037 -0.0519,-0.121 -0.1035,-0.121 -0.1037,0 -0.259,0.0865 -0.4663,0.0865 -0.2763,0 -0.6219,0 -0.6219,-0.7081 0,-0.5182 1.1055,-10.7598 1.1055,-10.7598 0,-0.2591 -0.1729,-0.3798 -0.6565,-0.3798 z m 12.9875,0.7945 c -4.5422,0 -6.0276,3.6958 -6.0276,7.3228 0,3.2641 1.6407,4.9739 4.7322,4.9739 3.6961,0 6.0622,-2.5563 6.0622,-7.3573 0,-3.2644 -1.658,-4.9394 -4.7668,-4.9394 z m -0.1383,1.3125 c 2.1589,0 3.316,1.2781 3.316,3.7995 0,3.8169 -1.7442,5.872 -4.3348,5.872 -2.1588,0 -3.2989,-1.3124 -3.2989,-3.8169 0,-3.8684 1.6925,-5.8546 4.3177,-5.8546 z m 11.3298,1.7444 c -0.898,0 -1.7617,0.6562 -2.2972,1.7442 0.0173,-0.2072 0.0346,-0.4145 0.0346,-0.6217 0,-0.4663 -0.1035,-0.8634 -0.4663,-0.8634 -0.1208,0 -0.9672,0.017 -0.9672,0.3971 0,0.1554 0.0173,0.2764 0.0173,0.5871 0,0.4147 -0.0689,1.1744 -0.1035,1.4508 l -0.6565,6.1137 c 0,0.2075 0.1902,0.3629 0.6565,0.3629 h 0.0689 c 0.4493,0 0.6908,-0.1384 0.7254,-0.3802 0,0 0.2591,-2.4176 0.4836,-4.6284 0.4663,-1.7098 1.2954,-2.7286 2.1934,-2.7286 0.449,0 0.5355,0.1899 0.6735,0.1899 0.2073,0 0.5009,-0.5354 0.5009,-0.9672 0,-0.5354 -0.5182,-0.6562 -0.8634,-0.6562 z m 9.015,0.0689 h -0.1035 c -0.4835,0 -0.6046,0.3628 -0.7772,0.8637 -0.3971,-0.3628 -1.1744,-0.9326 -2.2796,-0.9326 -2.6252,0 -4.3178,2.2969 -4.3178,5.5091 0,2.9189 1.8134,3.627 2.9705,3.627 1.0363,0 2.0554,-0.5182 2.7807,-1.8652 -0.2417,3.0914 -1.1228,4.2831 -2.798,4.2831 -1.7961,0 -2.5214,-0.9326 -2.7287,-0.9326 -0.0864,0 -0.2418,0.1035 -0.2418,0.9499 0,0.5182 1.209,1.2263 2.9705,1.2263 2.4698,0 3.7822,-1.2436 4.2142,-5.3714 l 0.7427,-6.9945 c 0,-0.2245 -0.0864,-0.3628 -0.432,-0.3628 z m -1.2778,2.7289 -0.2245,2.1243 c -0.7254,2.3142 -1.8998,2.9531 -2.6771,2.9531 -0.9845,0 -1.796,-0.587 -1.796,-2.4695 0,-2.0724 0.587,-4.1451 2.9531,-4.1451 0.898,0 1.5372,0.4147 1.8825,0.6735 -0.0519,0.2764 -0.1035,0.5527 -0.138,0.8637 z m 11.3295,5.112 c -0.1038,0 -0.2591,0.0865 -0.4663,0.0865 -0.2764,0 -0.622,0 -0.622,-0.7081 0,-0.4663 0.6908,-6.8565 0.6908,-6.8565 0,-0.2245 -0.0861,-0.3628 -0.4317,-0.3628 h -0.1034 c -0.4836,0 -0.6047,0.3628 -0.7773,0.8637 -0.3798,-0.3628 -1.1225,-0.9326 -2.1934,-0.9326 -2.5733,0 -4.2313,2.2969 -4.2313,5.5091 0,3.0053 1.7617,3.7307 2.8842,3.7307 1.0018,0 1.986,-0.5181 2.6944,-1.8655 v 0.173 c 0,1.1744 0.5697,1.6925 1.5542,1.6925 0.311,0 0.9499,-0.1383 1.0363,-0.57 0.0689,-0.3799 0.0689,-0.6217 0.0689,-0.639 0,-0.1037 -0.0518,-0.121 -0.1034,-0.121 z m -2.107,-5.112 c 0,0 -0.1211,1.1225 -0.2245,2.2623 -0.7081,2.2799 -1.8309,2.9189 -2.5906,2.9189 -0.9329,0 -1.7099,-0.6047 -1.7099,-2.5733 0,-2.0724 0.5698,-4.1451 2.867,-4.1451 0.8634,0 1.4678,0.4147 1.796,0.6735 -0.0519,0.2764 -0.1037,0.5527 -0.138,0.8637 z m 11.4157,5.112 c -0.1035,0 -0.2591,0.0865 -0.4663,0.0865 -0.2764,0 -0.6217,0 -0.6217,-0.7081 0,-0.3629 0.5009,-4.7495 0.5009,-5.0431 0,-1.2779 -0.6046,-2.2451 -2.2799,-2.2451 -1.0534,0 -2.1243,0.4663 -3.0569,1.7442 v -0.328 c 0,-0.6046 -0.1034,-1.1571 -0.449,-1.1571 -0.1207,0 -0.9672,0.017 -0.9672,0.3971 0,0.1035 0.0173,0.1727 0.0173,0.5871 0,0.8118 -0.7599,7.5645 -0.7599,7.5645 0,0.2075 0.1899,0.3629 0.6565,0.3629 h 0.0688 c 0.449,0 0.6908,-0.1384 0.7254,-0.3802 0,0 0.2764,-2.5214 0.5009,-4.7491 0.7427,-2.2281 1.9862,-2.7808 2.7459,-2.7808 0.881,0 1.3127,0.449 1.3127,1.33 0,0.328 -0.4835,4.3866 -0.4835,4.9567 0,1.1744 0.57,1.6925 1.5542,1.6925 0.311,0 0.9499,-0.1383 1.0363,-0.57 0.0692,-0.3799 0.0692,-0.6217 0.0692,-0.639 0,-0.1037 -0.0519,-0.121 -0.1037,-0.121 z m 3.9721,-11.7612 h -0.2072 c -0.449,0 -0.6908,0.1034 -0.7254,0.3798 l -0.1037,1.0191 c 0,0.3109 0.2764,0.3798 0.7254,0.3798 h 0.2072 c 0.4836,0 0.6565,-0.1553 0.6565,-0.3798 l 0.1035,-1.0191 c 0,-0.2764 -0.1727,-0.3798 -0.6563,-0.3798 z m -0.4835,3.9203 h -0.0692 c -0.449,0 -0.6908,0.1037 -0.7254,0.3801 -0.0343,0 -0.7081,6.4418 -0.7081,7.1498 0,1.1401 0.5701,1.641 1.5372,1.641 0.311,0 0.9499,-0.1383 1.0364,-0.57 0.0689,-0.3799 0.0689,-0.6217 0.0689,-0.639 0,-0.1037 -0.0519,-0.121 -0.1035,-0.121 -0.1037,0 -0.2591,0.0865 -0.4663,0.0865 -0.2764,0 -0.6046,0 -0.6046,-0.7081 0,-0.5182 0.6908,-6.8392 0.6908,-6.8392 0,-0.2591 -0.1727,-0.3801 -0.6562,-0.3801 z m 9.8444,0.0346 h -6.0622 c -0.4144,0 -0.4317,0.5873 -0.4317,0.7772 0,0.2764 0.0519,0.4663 0.2937,0.4663 h 4.4212 l -5.751,6.7184 c -0.0691,0.0689 -0.0864,0.19 -0.0864,0.2761 0,0.3456 0.1726,0.7946 0.2937,0.7946 h 6.3901 c 0.4144,0 0.4317,-0.5874 0.4317,-0.7773 0,-0.2764 -0.0519,-0.4663 -0.2937,-0.4663 h -4.7494 l 5.7339,-6.7181 c 0.0346,-0.0346 0.0692,-0.121 0.0692,-0.2418 0,-0.3282 -0.1038,-0.8291 -0.2591,-0.8291 z m 4.3693,5.3541 c 2.3488,0 4.663,-0.76 4.663,-3.1607 0,-0.8807 -0.7254,-2.2969 -2.9012,-2.2969 -3.3852,0 -4.7495,2.5733 -4.7495,5.6648 0,3.0914 2.1932,3.575 3.903,3.575 0.7427,0 2.6771,-0.2936 2.8324,-1.1055 0.0692,-0.3625 0.0865,-0.7254 0.0865,-0.777 0,-0.2075 -0.0519,-0.2075 -0.1211,-0.2075 -0.2418,0 -1.1225,0.8465 -2.6767,0.8465 -1.52,0 -2.5217,-0.5701 -2.5217,-2.4872 v -0.1726 c 0.3628,0.0692 0.8464,0.1211 1.4853,0.1211 z m 1.6061,-4.2143 c 0.9845,0 1.5546,0.5527 1.5546,1.1917 0,1.779 -2.8324,1.779 -3.3333,1.779 h -1.2263 c 0.2245,-1.6061 1.0018,-2.9707 3.005,-2.9707 z m 9.43,-1.2433 c -0.898,0 -1.7617,0.6562 -2.2971,1.7442 0.0172,-0.2072 0.0345,-0.4145 0.0345,-0.6217 0,-0.4663 -0.1034,-0.8634 -0.4663,-0.8634 -0.1207,0 -0.9671,0.017 -0.9671,0.3971 0,0.1554 0.0172,0.2764 0.0172,0.5871 0,0.4147 -0.0688,1.1744 -0.1034,1.4508 l -0.6565,6.1137 c 0,0.2075 0.1902,0.3629 0.6565,0.3629 h 0.0689 c 0.4493,0 0.6908,-0.1384 0.7253,-0.3802 0,0 0.2591,-2.4176 0.4836,-4.6284 0.4663,-1.7098 1.2955,-2.7286 2.1935,-2.7286 0.449,0 0.5355,0.1899 0.6735,0.1899 0.2072,0 0.5009,-0.5354 0.5009,-0.9672 0,-0.5354 -0.5182,-0.6562 -0.8635,-0.6562 z" />
    </g>
  </g>
</svg>
